<svg width="23" height="23" viewBox="0 0 23 23" fill="none" xmlns="http://www.w3.org/2000/svg">
<path d="M9.20005 18.975C9.20005 19.9277 8.42774 20.7 7.47505 20.7C6.52236 20.7 5.75005 19.9277 5.75005 18.975C5.75005 18.0223 6.52236 17.25 7.47505 17.25C8.42774 17.25 9.20005 18.0223 9.20005 18.975Z" fill="#111827"/>
<path d="M17.25 18.975C17.25 19.9277 16.4777 20.7 15.5251 20.7C14.5724 20.7 13.8 19.9277 13.8 18.975C13.8 18.0223 14.5724 17.25 15.5251 17.25C16.4777 17.25 17.25 18.0223 17.25 18.975Z" fill="#111827"/>
<path d="M3.45005 4.59998C2.81492 4.59998 2.30005 5.11485 2.30005 5.74998V17.25C2.30005 17.8851 2.81492 18.4 3.45005 18.4H4.65756C4.92394 17.0877 6.08415 16.1 7.47505 16.1C8.86595 16.1 10.0262 17.0877 10.2925 18.4H11.5C12.1352 18.4 12.65 17.8851 12.65 17.25V5.74998C12.65 5.11485 12.1352 4.59998 11.5 4.59998H3.45005Z" fill="#111827"/>
<path d="M16.1 8.04998C15.4649 8.04998 14.9501 8.56485 14.9501 9.19998V16.1575C15.1358 16.1198 15.3281 16.1 15.5251 16.1C16.9159 16.1 18.0762 17.0877 18.3425 18.4H19.5501C20.1852 18.4 20.7001 17.8851 20.7001 17.25V11.5C20.7001 11.195 20.5789 10.9025 20.3632 10.6868L18.0632 8.3868C17.8476 8.17114 17.555 8.04998 17.25 8.04998H16.1Z" fill="#111827"/>
</svg>
