<svg width="350" height="109" viewBox="0 0 350 109" fill="none" xmlns="http://www.w3.org/2000/svg">
<rect x="0.5" y="0.5" width="349" height="108" rx="7.5" fill="#F2F2F1" stroke="black"/>
<path d="M68 1H246L262.5 108H167.5L68 1Z" fill="white"/>
<path d="M21.13 31.182C20.0847 31.182 19.296 30.9487 18.764 30.482C18.232 30.0153 17.966 29.334 17.966 28.438V27.878C17.966 27.4953 18.0173 27.1827 18.12 26.94C18.2227 26.688 18.3487 26.4593 18.498 26.254C18.6473 26.0487 18.7687 25.8667 18.862 25.708C18.9647 25.54 19.016 25.3673 19.016 25.19C19.016 25.022 18.974 24.9053 18.89 24.84C18.8153 24.7653 18.7127 24.728 18.582 24.728C18.4887 24.728 18.3907 24.742 18.288 24.77C18.1947 24.798 18.0873 24.84 17.966 24.896L17.63 23.58C17.8913 23.44 18.1713 23.3467 18.47 23.3C18.778 23.244 19.0487 23.216 19.282 23.216C19.6927 23.216 20.0193 23.2813 20.262 23.412C20.514 23.5427 20.696 23.7293 20.808 23.972C20.92 24.2147 20.976 24.504 20.976 24.84C20.976 25.1293 20.934 25.386 20.85 25.61C20.766 25.8247 20.6587 26.0487 20.528 26.282C20.4067 26.4967 20.2947 26.6973 20.192 26.884C20.0987 27.0707 20.052 27.3413 20.052 27.696V28.256C20.052 28.5547 20.094 28.802 20.178 28.998C20.2713 29.1847 20.3973 29.3247 20.556 29.418C20.724 29.502 20.92 29.544 21.144 29.544C21.508 29.544 21.7787 29.4413 21.956 29.236C22.1333 29.0213 22.222 28.718 22.222 28.326V23.328H24.308V28.382C24.308 29.306 24.0373 30.006 23.496 30.482C22.9547 30.9487 22.166 31.182 21.13 31.182ZM28.8832 31.14C28.3138 31.14 27.8332 31.0327 27.4412 30.818C27.0585 30.594 26.7645 30.2627 26.5592 29.824C26.3632 29.3853 26.2652 28.8487 26.2652 28.214V23.328H28.3652V27.85C28.3652 28.3633 28.4678 28.7367 28.6732 28.97C28.8785 29.2033 29.1772 29.32 29.5692 29.32C30.0638 29.32 30.4465 29.1333 30.7172 28.76C30.9878 28.3773 31.1232 27.7893 31.1232 26.996V23.328H33.2232V31H31.6272L31.4032 29.824H31.2772C31.1185 30.1973 30.8432 30.51 30.4512 30.762C30.0685 31.014 29.5458 31.14 28.8832 31.14ZM37.3459 31V25.932C37.3459 25.54 37.2526 25.2553 37.0659 25.078C36.8886 24.9007 36.5946 24.812 36.1839 24.812C35.8759 24.812 35.5913 24.854 35.3299 24.938C35.0779 25.022 34.8399 25.1247 34.6159 25.246V23.566C34.8213 23.4727 35.1106 23.3793 35.4839 23.286C35.8573 23.1927 36.2959 23.146 36.7999 23.146C37.3133 23.146 37.7659 23.2207 38.1579 23.37C38.5593 23.5193 38.8719 23.7713 39.0959 24.126C39.3293 24.4713 39.4459 24.9473 39.4459 25.554V31H37.3459ZM44.1579 31.14C43.4019 31.14 42.7999 30.9767 42.3519 30.65C41.9039 30.314 41.5819 29.8567 41.3859 29.278C41.1899 28.69 41.0919 28.018 41.0919 27.262C41.0919 26.45 41.1806 25.778 41.3579 25.246C41.5446 24.7047 41.8059 24.2847 42.1419 23.986C42.4779 23.678 42.8746 23.4633 43.3319 23.342C43.7986 23.2113 44.3073 23.146 44.8579 23.146C45.6979 23.146 46.3699 23.2627 46.8739 23.496C47.3779 23.7293 47.7419 24.0607 47.9659 24.49C48.1993 24.9193 48.3159 25.4233 48.3159 26.002V31H46.2159V26.17C46.2159 25.7313 46.1086 25.4 45.8939 25.176C45.6886 24.9427 45.3433 24.826 44.8579 24.826C44.5313 24.826 44.2419 24.896 43.9899 25.036C43.7473 25.1667 43.5559 25.4047 43.4159 25.75C43.2853 26.0953 43.2199 26.59 43.2199 27.234C43.2199 27.6727 43.2619 28.06 43.3459 28.396C43.4299 28.732 43.5653 28.9933 43.7519 29.18C43.9479 29.3667 44.2093 29.46 44.5359 29.46C44.6386 29.46 44.7366 29.4553 44.8299 29.446C44.9326 29.4273 45.0213 29.4087 45.0959 29.39L45.2919 30.958C45.1426 31.0233 44.9606 31.07 44.7459 31.098C44.5406 31.126 44.3446 31.14 44.1579 31.14Z" fill="black"/>
<path d="M15.612 59.9534C15.0613 59.9534 14.506 59.8928 13.946 59.7714C13.3953 59.6501 12.9053 59.4774 12.476 59.2534L13.064 57.5874C13.2507 57.6901 13.4747 57.7974 13.736 57.9094C13.9973 58.0214 14.282 58.1148 14.59 58.1894C14.898 58.2641 15.2107 58.3014 15.528 58.3014C15.9013 58.3014 16.1813 58.2501 16.368 58.1474C16.564 58.0354 16.662 57.8674 16.662 57.6434C16.662 57.4754 16.5967 57.3401 16.466 57.2374C16.3447 57.1254 16.1627 57.0228 15.92 56.9294C15.6773 56.8268 15.388 56.7194 15.052 56.6074C14.5573 56.4301 14.1327 56.2388 13.778 56.0334C13.4233 55.8281 13.148 55.5761 12.952 55.2774C12.7653 54.9788 12.672 54.6054 12.672 54.1574C12.672 53.6441 12.8027 53.2241 13.064 52.8974C13.3253 52.5708 13.694 52.3281 14.17 52.1694C14.646 52.0014 15.2013 51.9174 15.836 51.9174C16.3587 51.9174 16.83 51.9594 17.25 52.0434C17.67 52.1274 17.9967 52.2348 18.23 52.3654V54.0174C18.0713 53.9428 17.8613 53.8681 17.6 53.7934C17.348 53.7188 17.0727 53.6581 16.774 53.6114C16.4847 53.5554 16.2047 53.5274 15.934 53.5274C15.5513 53.5274 15.262 53.5788 15.066 53.6814C14.87 53.7841 14.772 53.9288 14.772 54.1154C14.772 54.2648 14.8373 54.3908 14.968 54.4934C15.108 54.5961 15.3087 54.6941 15.57 54.7874C15.8313 54.8714 16.144 54.9788 16.508 55.1094C16.9933 55.2774 17.404 55.4641 17.74 55.6694C18.076 55.8748 18.328 56.1268 18.496 56.4254C18.6733 56.7241 18.762 57.0928 18.762 57.5314C18.762 57.9514 18.664 58.3481 18.468 58.7214C18.2813 59.0854 17.9593 59.3841 17.502 59.6174C17.0447 59.8414 16.4147 59.9534 15.612 59.9534ZM23.2781 59.9534C22.1394 59.9534 21.2948 59.6781 20.7441 59.1274C20.1934 58.5674 19.9181 57.7414 19.9181 56.6494C19.9181 56.4628 19.9228 56.2388 19.9321 55.9774C19.9508 55.7068 19.9741 55.4688 20.0021 55.2634H23.3621V56.5934H21.9761V56.7894C21.9761 57.1628 22.0228 57.4708 22.1161 57.7134C22.2094 57.9468 22.3494 58.1194 22.5361 58.2314C22.7321 58.3434 22.9748 58.3994 23.2641 58.3994C23.5814 58.3994 23.8474 58.3294 24.0621 58.1894C24.2861 58.0494 24.4541 57.8114 24.5661 57.4754C24.6874 57.1394 24.7481 56.6774 24.7481 56.0894C24.7481 55.5388 24.6828 55.0814 24.5521 54.7174C24.4308 54.3441 24.2208 54.0641 23.9221 53.8774C23.6328 53.6908 23.2314 53.5974 22.7181 53.5974C22.4381 53.5974 22.1488 53.6301 21.8501 53.6954C21.5514 53.7514 21.2668 53.8261 20.9961 53.9194C20.7348 54.0128 20.5061 54.1154 20.3101 54.2274V52.4774C20.5154 52.3654 20.7674 52.2674 21.0661 52.1834C21.3741 52.0994 21.7054 52.0341 22.0601 51.9874C22.4148 51.9408 22.7648 51.9174 23.1101 51.9174C24.0154 51.9174 24.7434 52.0854 25.2941 52.4214C25.8541 52.7481 26.2601 53.2148 26.5121 53.8214C26.7734 54.4281 26.9041 55.1468 26.9041 55.9774C26.9041 56.8268 26.7781 57.5501 26.5261 58.1474C26.2834 58.7354 25.8961 59.1834 25.3641 59.4914C24.8321 59.7994 24.1368 59.9534 23.2781 59.9534ZM31.9829 59.9534C30.7696 59.9534 29.8876 59.6734 29.3369 59.1134C28.7956 58.5441 28.5249 57.7228 28.5249 56.6494V52.0994H30.6249V56.7614C30.6249 57.2561 30.7323 57.6341 30.9469 57.8954C31.1709 58.1474 31.5163 58.2734 31.9829 58.2734C32.4496 58.2734 32.7903 58.1474 33.0049 57.8954C33.2289 57.6341 33.3409 57.2561 33.3409 56.7614V52.0994H35.4409V56.6494C35.4409 57.7228 35.1656 58.5441 34.6149 59.1134C34.0736 59.6734 33.1963 59.9534 31.9829 59.9534ZM40.45 59.9534C39.3113 59.9534 38.4666 59.6781 37.916 59.1274C37.3653 58.5674 37.09 57.7414 37.09 56.6494C37.09 56.4628 37.0946 56.2388 37.104 55.9774C37.1226 55.7068 37.146 55.4688 37.174 55.2634H40.534V56.5934H39.148V56.7894C39.148 57.1628 39.1946 57.4708 39.288 57.7134C39.3813 57.9468 39.5213 58.1194 39.708 58.2314C39.904 58.3434 40.1466 58.3994 40.436 58.3994C40.7533 58.3994 41.0193 58.3294 41.234 58.1894C41.458 58.0494 41.626 57.8114 41.738 57.4754C41.8593 57.1394 41.92 56.6774 41.92 56.0894C41.92 55.5388 41.8546 55.0814 41.724 54.7174C41.6026 54.3441 41.3926 54.0641 41.094 53.8774C40.8046 53.6908 40.4033 53.5974 39.89 53.5974C39.61 53.5974 39.3206 53.6301 39.022 53.6954C38.7233 53.7514 38.4386 53.8261 38.168 53.9194C37.9066 54.0128 37.678 54.1154 37.482 54.2274V52.4774C37.6873 52.3654 37.9393 52.2674 38.238 52.1834C38.546 52.0994 38.8773 52.0341 39.232 51.9874C39.5866 51.9408 39.9366 51.9174 40.282 51.9174C41.1873 51.9174 41.9153 52.0854 42.466 52.4214C43.026 52.7481 43.432 53.2148 43.684 53.8214C43.9453 54.4281 44.076 55.1468 44.076 55.9774C44.076 56.8268 43.95 57.5501 43.698 58.1474C43.4553 58.7354 43.068 59.1834 42.536 59.4914C42.004 59.7994 41.3086 59.9534 40.45 59.9534ZM45.6268 59.7714V57.4334C45.6268 56.8454 45.7435 56.3928 45.9768 56.0754C46.2101 55.7581 46.5415 55.5341 46.9708 55.4034L46.9848 55.3474L45.4868 54.8014V54.4374C45.4868 53.9801 45.6221 53.5601 45.8928 53.1774C46.1635 52.7948 46.5601 52.4914 47.0828 52.2674C47.6148 52.0341 48.2588 51.9174 49.0148 51.9174C49.7241 51.9174 50.3355 52.0294 50.8488 52.2534C51.3621 52.4681 51.7588 52.7948 52.0388 53.2334C52.3281 53.6628 52.4728 54.2088 52.4728 54.8714V59.7714H50.3728V54.9974C50.3728 54.5308 50.2468 54.1808 49.9948 53.9474C49.7521 53.7141 49.4068 53.5974 48.9588 53.5974C48.5295 53.5974 48.2075 53.6908 47.9928 53.8774C47.7781 54.0548 47.6615 54.2741 47.6428 54.5354L48.8888 55.1094L48.7348 56.0194C48.3988 56.0381 48.1468 56.1594 47.9788 56.3834C47.8108 56.6074 47.7268 56.9108 47.7268 57.2934V59.7714H45.6268Z" fill="black"/>
<path d="M27.228 88.182C26.388 88.182 25.716 88.084 25.212 87.888C24.708 87.6827 24.3393 87.398 24.106 87.034C23.882 86.67 23.77 86.25 23.77 85.774C23.77 85.3633 23.8307 85.032 23.952 84.78C24.0827 84.528 24.246 84.3367 24.442 84.206C24.6473 84.066 24.8527 83.9727 25.058 83.926V83.842C24.8433 83.7673 24.638 83.6647 24.442 83.534C24.246 83.4033 24.0827 83.226 23.952 83.002C23.8307 82.778 23.77 82.498 23.77 82.162C23.77 81.8167 23.8493 81.4947 24.008 81.196C24.176 80.8973 24.442 80.6593 24.806 80.482C25.17 80.2953 25.6507 80.202 26.248 80.202C26.5373 80.202 26.8173 80.2253 27.088 80.272C27.3587 80.3093 27.5687 80.3653 27.718 80.44L27.396 81.854C27.3213 81.8353 27.2187 81.8167 27.088 81.798C26.9667 81.77 26.8407 81.756 26.71 81.756C26.4207 81.756 26.206 81.826 26.066 81.966C25.926 82.0967 25.856 82.2693 25.856 82.484C25.856 82.708 25.9167 82.8807 26.038 83.002C26.1593 83.1233 26.3133 83.2073 26.5 83.254C26.696 83.3007 26.8967 83.324 27.102 83.324H27.396V84.626H27.102C26.7007 84.626 26.3973 84.696 26.192 84.836C25.996 84.976 25.898 85.2047 25.898 85.522C25.898 85.69 25.9353 85.858 26.01 86.026C26.094 86.1847 26.234 86.32 26.43 86.432C26.626 86.5347 26.906 86.586 27.27 86.586C27.6153 86.586 27.886 86.5347 28.082 86.432C28.278 86.3293 28.418 86.194 28.502 86.026C28.586 85.8487 28.628 85.6527 28.628 85.438V80.328H30.728V85.368C30.728 86.3293 30.4433 87.0387 29.874 87.496C29.314 87.9533 28.432 88.182 27.228 88.182ZM34.719 88V82.932C34.719 82.54 34.6257 82.2553 34.439 82.078C34.2617 81.9007 33.9677 81.812 33.557 81.812C33.249 81.812 32.9643 81.854 32.703 81.938C32.451 82.022 32.213 82.1247 31.989 82.246V80.566C32.1943 80.4727 32.4837 80.3793 32.857 80.286C33.2303 80.1927 33.669 80.146 34.173 80.146C34.6863 80.146 35.139 80.2207 35.531 80.37C35.9323 80.5193 36.245 80.7713 36.469 81.126C36.7023 81.4713 36.819 81.9473 36.819 82.554V88H34.719ZM40.817 88.182C40.341 88.182 39.893 88.126 39.473 88.014C39.053 87.9113 38.661 87.762 38.297 87.566L38.857 86.04C39.0623 86.1613 39.3096 86.2687 39.599 86.362C39.8883 86.4553 40.173 86.502 40.453 86.502C40.9756 86.502 41.391 86.306 41.699 85.914C42.007 85.5127 42.161 84.9153 42.161 84.122C42.161 83.3753 42.007 82.806 41.699 82.414C41.391 82.022 40.9103 81.826 40.257 81.826C39.949 81.826 39.6316 81.8727 39.305 81.966C38.9783 82.05 38.7076 82.1573 38.493 82.288V80.566C38.7823 80.4353 39.109 80.3327 39.473 80.258C39.837 80.1833 40.2243 80.146 40.635 80.146C41.4936 80.146 42.1936 80.3047 42.735 80.622C43.2763 80.9393 43.673 81.3967 43.925 81.994C44.177 82.582 44.303 83.2913 44.303 84.122C44.303 85.4473 43.9996 86.4553 43.393 87.146C42.7863 87.8367 41.9276 88.182 40.817 88.182Z" fill="black"/>
<path d="M72.1875 20.8182L74.6236 24.8004H74.7031L77.1392 20.8182H78.919L75.7472 25.9091L78.9389 31H77.1491L74.7031 27.0724H74.6236L72.1776 31H70.3878L73.6342 25.9091L70.4077 20.8182H72.1875ZM85.9961 23.4929C85.9431 23.0223 85.7243 22.6577 85.3398 22.3991C84.9554 22.1373 84.4715 22.0064 83.8881 22.0064C83.4705 22.0064 83.1093 22.0727 82.8043 22.2053C82.4994 22.3345 82.2624 22.5135 82.0934 22.7422C81.9277 22.9676 81.8448 23.2244 81.8448 23.5128C81.8448 23.7547 81.9012 23.9635 82.0138 24.1392C82.1299 24.3149 82.2807 24.4624 82.4663 24.5817C82.6552 24.6977 82.8574 24.7955 83.0728 24.875C83.2882 24.9512 83.4954 25.0142 83.6942 25.0639L84.6886 25.3224C85.0134 25.402 85.3465 25.5097 85.6879 25.6456C86.0292 25.7815 86.3458 25.9605 86.6374 26.1825C86.9291 26.4046 87.1644 26.6797 87.3434 27.0078C87.5257 27.3359 87.6168 27.7287 87.6168 28.1861C87.6168 28.7628 87.4677 29.2749 87.1694 29.7223C86.8744 30.1697 86.4452 30.5227 85.8817 30.7812C85.3216 31.0398 84.6438 31.169 83.8484 31.169C83.0861 31.169 82.4265 31.0481 81.8697 30.8061C81.3129 30.5642 80.877 30.2211 80.5621 29.777C80.2473 29.3295 80.0733 28.7992 80.0401 28.1861H81.5813C81.6112 28.554 81.7305 28.8606 81.9393 29.1058C82.1514 29.3478 82.4215 29.5284 82.7496 29.6477C83.0811 29.7637 83.444 29.8217 83.8384 29.8217C84.2726 29.8217 84.6587 29.7538 84.9968 29.6179C85.3382 29.4787 85.6067 29.2865 85.8022 29.0412C85.9978 28.7926 86.0955 28.5026 86.0955 28.1712C86.0955 27.8696 86.0094 27.6226 85.837 27.4304C85.668 27.2382 85.4376 27.0791 85.146 26.9531C84.8576 26.8272 84.5311 26.7161 84.1665 26.62L82.9634 26.2919C82.1481 26.0698 81.5018 25.7434 81.0245 25.3125C80.5505 24.8816 80.3136 24.3116 80.3136 23.6023C80.3136 23.0156 80.4727 22.5036 80.7908 22.0661C81.109 21.6286 81.5399 21.2888 82.0835 21.0469C82.627 20.8016 83.2402 20.679 83.9229 20.679C84.6123 20.679 85.2205 20.8 85.7475 21.0419C86.2778 21.2839 86.6954 21.617 87.0004 22.0412C87.3053 22.4621 87.4644 22.946 87.4776 23.4929H85.9961Z" fill="black"/>
<path d="M74.5241 59.9106C73.8414 59.9106 73.2315 59.793 72.6946 59.5576C72.161 59.3223 71.7384 58.9959 71.4268 58.5782C71.1186 58.1573 70.9529 57.6701 70.9297 57.1166H72.4908C72.5107 57.4182 72.6117 57.68 72.794 57.9021C72.9796 58.1209 73.2216 58.2899 73.5199 58.4092C73.8182 58.5285 74.1496 58.5882 74.5142 58.5882C74.9152 58.5882 75.2699 58.5186 75.5781 58.3794C75.8897 58.2402 76.1333 58.0463 76.3089 57.7977C76.4846 57.5458 76.5724 57.2558 76.5724 56.9277C76.5724 56.5863 76.4846 56.2863 76.3089 56.0278C76.1366 55.766 75.883 55.5605 75.5483 55.4113C75.2169 55.2622 74.8158 55.1876 74.3452 55.1876H73.4851V53.9348H74.3452C74.723 53.9348 75.0545 53.8668 75.3395 53.7309C75.6278 53.595 75.8532 53.4061 76.0156 53.1642C76.178 52.9189 76.2592 52.6322 76.2592 52.3041C76.2592 51.9892 76.188 51.7158 76.0455 51.4838C75.9063 51.2485 75.7074 51.0645 75.4489 50.9319C75.1937 50.7994 74.892 50.7331 74.544 50.7331C74.2126 50.7331 73.9027 50.7944 73.6143 50.917C73.3293 51.0363 73.0973 51.2087 72.9183 51.4341C72.7393 51.6561 72.6432 51.9229 72.63 52.2345H71.1435C71.16 51.6843 71.3224 51.2004 71.6307 50.7828C71.9422 50.3652 72.3532 50.0387 72.8636 49.8034C73.3741 49.5681 73.9408 49.4504 74.5639 49.4504C75.2169 49.4504 75.7803 49.578 76.2543 49.8332C76.7315 50.0851 77.0994 50.4215 77.358 50.8424C77.6198 51.2634 77.7491 51.7241 77.7457 52.2245C77.7491 52.7946 77.59 53.2785 77.2685 53.6763C76.9503 54.074 76.526 54.3408 75.9957 54.4767V54.5562C76.6719 54.659 77.1955 54.9274 77.5668 55.3616C77.9413 55.7958 78.1269 56.3344 78.1236 56.9774C78.1269 57.5375 77.9711 58.0397 77.6562 58.4838C77.3447 58.9279 76.9188 59.2776 76.3786 59.5328C75.8383 59.7847 75.2202 59.9106 74.5241 59.9106ZM83.5575 59.9106C83.1035 59.904 82.656 59.8211 82.2152 59.662C81.7777 59.503 81.38 59.2378 81.022 58.8666C80.6641 58.4954 80.3774 57.9966 80.1619 57.3701C79.9498 56.7437 79.8438 55.9615 79.8438 55.0236C79.8438 54.1353 79.9316 53.3465 80.1072 52.6571C80.2862 51.9677 80.5431 51.386 80.8778 50.912C81.2126 50.4348 81.617 50.0718 82.0909 49.8233C82.5649 49.5747 83.0968 49.4504 83.6868 49.4504C84.2933 49.4504 84.8319 49.5697 85.3026 49.8084C85.7732 50.047 86.1544 50.3768 86.446 50.7977C86.741 51.2186 86.9283 51.6976 87.0078 52.2345H85.4915C85.3887 51.8102 85.1849 51.4639 84.88 51.1954C84.575 50.927 84.1773 50.7927 83.6868 50.7927C82.9411 50.7927 82.3594 51.1175 81.9418 51.7672C81.5275 52.4168 81.3187 53.32 81.3153 54.4767H81.3899C81.5656 54.1883 81.781 53.9431 82.0362 53.7409C82.2947 53.5354 82.5831 53.378 82.9013 53.2686C83.2228 53.1559 83.5608 53.0995 83.9155 53.0995C84.5054 53.0995 85.0391 53.2437 85.5163 53.5321C85.9969 53.8171 86.3797 54.2115 86.6648 54.7153C86.9498 55.2191 87.0923 55.7958 87.0923 56.4454C87.0923 57.0951 86.9448 57.6834 86.6499 58.2103C86.3582 58.7373 85.9472 59.1549 85.4169 59.4632C84.8866 59.7681 84.2668 59.9173 83.5575 59.9106ZM83.5526 58.618C83.9437 58.618 84.2933 58.5219 84.6016 58.3297C84.9098 58.1374 85.1534 57.8789 85.3324 57.5541C85.5114 57.2293 85.6009 56.8664 85.6009 56.4653C85.6009 56.0742 85.513 55.7179 85.3374 55.3964C85.165 55.0749 84.9264 54.8197 84.6214 54.6308C84.3198 54.4419 83.9751 54.3474 83.5874 54.3474C83.2924 54.3474 83.0189 54.4038 82.767 54.5165C82.5185 54.6291 82.2997 54.7849 82.1108 54.9838C81.9219 55.1826 81.7727 55.4113 81.6634 55.6699C81.5573 55.9251 81.5043 56.1952 81.5043 56.4802C81.5043 56.8614 81.5921 57.2144 81.7678 57.5392C81.9467 57.864 82.1903 58.1258 82.4986 58.3247C82.8101 58.5202 83.1615 58.618 83.5526 58.618Z" fill="black"/>
<path d="M70.9794 88V86.8864L74.4247 83.3168C74.7926 82.929 75.0959 82.5893 75.3345 82.2976C75.5765 82.0026 75.7571 81.7225 75.8764 81.4574C75.9957 81.1922 76.0554 80.9105 76.0554 80.6122C76.0554 80.2741 75.9759 79.9825 75.8168 79.7372C75.6577 79.4886 75.4406 79.2981 75.1655 79.1655C74.8904 79.0296 74.5805 78.9616 74.2358 78.9616C73.8712 78.9616 73.553 79.0362 73.2812 79.1854C73.0095 79.3345 72.8007 79.545 72.6548 79.8168C72.509 80.0885 72.4361 80.4067 72.4361 80.7713H70.9695C70.9695 80.1515 71.112 79.6096 71.397 79.1456C71.6821 78.6816 72.0732 78.322 72.5703 78.0668C73.0675 77.8082 73.6326 77.679 74.2656 77.679C74.9053 77.679 75.4688 77.8066 75.956 78.0618C76.4465 78.3137 76.8293 78.6584 77.1044 79.0959C77.3795 79.5301 77.517 80.0206 77.517 80.5675C77.517 80.9453 77.4458 81.3149 77.3033 81.6761C77.1641 82.0374 76.9205 82.4401 76.5724 82.8842C76.2244 83.325 75.7405 83.8603 75.1207 84.4901L73.0973 86.608V86.6825H77.6811V88H70.9794ZM82.9261 88.1392C82.303 88.1392 81.7429 88.0199 81.2457 87.7812C80.7519 87.5393 80.3575 87.2079 80.0625 86.7869C79.7675 86.366 79.6101 85.8854 79.5902 85.3452H81.0817C81.1181 85.7827 81.312 86.1423 81.6634 86.424C82.0147 86.7057 82.4356 86.8466 82.9261 86.8466C83.3172 86.8466 83.6636 86.7571 83.9652 86.5781C84.2701 86.3958 84.5088 86.1456 84.6811 85.8274C84.8568 85.5092 84.9446 85.1463 84.9446 84.7386C84.9446 84.3243 84.8551 83.9548 84.6761 83.63C84.4972 83.3052 84.2502 83.05 83.9354 82.8643C83.6238 82.6787 83.2659 82.5843 82.8615 82.581C82.5533 82.581 82.2434 82.634 81.9318 82.7401C81.6203 82.8461 81.3684 82.9853 81.1761 83.1577L79.7692 82.9489L80.3409 77.8182H85.9389V79.1357H81.6186L81.2955 81.9844H81.3551C81.554 81.7921 81.8175 81.6314 82.1456 81.5021C82.477 81.3729 82.8317 81.3082 83.2095 81.3082C83.8293 81.3082 84.3812 81.4557 84.8651 81.7507C85.3523 82.0457 85.7351 82.4484 86.0135 82.9588C86.2952 83.4659 86.4344 84.0492 86.4311 84.7088C86.4344 85.3684 86.2853 85.9567 85.9837 86.4737C85.6854 86.9908 85.2711 87.3984 84.7408 87.6967C84.2138 87.9917 83.6089 88.1392 82.9261 88.1392Z" fill="black"/>
<path d="M108.672 23.4929C108.619 23.0223 108.4 22.6577 108.016 22.3991C107.631 22.1373 107.147 22.0064 106.564 22.0064C106.146 22.0064 105.785 22.0727 105.48 22.2053C105.175 22.3345 104.938 22.5135 104.769 22.7422C104.603 22.9676 104.521 23.2244 104.521 23.5128C104.521 23.7547 104.577 23.9635 104.69 24.1392C104.806 24.3149 104.956 24.4624 105.142 24.5817C105.331 24.6977 105.533 24.7955 105.749 24.875C105.964 24.9512 106.171 25.0142 106.37 25.0639L107.364 25.3224C107.689 25.402 108.022 25.5097 108.364 25.6456C108.705 25.7815 109.022 25.9605 109.313 26.1825C109.605 26.4046 109.84 26.6797 110.019 27.0078C110.201 27.3359 110.293 27.7287 110.293 28.1861C110.293 28.7628 110.143 29.2749 109.845 29.7223C109.55 30.1697 109.121 30.5227 108.558 30.7812C107.997 31.0398 107.32 31.169 106.524 31.169C105.762 31.169 105.102 31.0481 104.545 30.8061C103.989 30.5642 103.553 30.2211 103.238 29.777C102.923 29.3295 102.749 28.7992 102.716 28.1861H104.257C104.287 28.554 104.406 28.8606 104.615 29.1058C104.827 29.3478 105.097 29.5284 105.425 29.6477C105.757 29.7637 106.12 29.8217 106.514 29.8217C106.948 29.8217 107.335 29.7538 107.673 29.6179C108.014 29.4787 108.282 29.2865 108.478 29.0412C108.674 28.7926 108.771 28.5026 108.771 28.1712C108.771 27.8696 108.685 27.6226 108.513 27.4304C108.344 27.2382 108.113 27.0791 107.822 26.9531C107.533 26.8272 107.207 26.7161 106.842 26.62L105.639 26.2919C104.824 26.0698 104.178 25.7434 103.7 25.3125C103.226 24.8816 102.989 24.3116 102.989 23.6023C102.989 23.0156 103.148 22.5036 103.467 22.0661C103.785 21.6286 104.216 21.2888 104.759 21.0469C105.303 20.8016 105.916 20.679 106.599 20.679C107.288 20.679 107.896 20.8 108.423 21.0419C108.954 21.2839 109.371 21.617 109.676 22.0412C109.981 22.4621 110.14 22.946 110.153 23.4929H108.672Z" fill="black"/>
<path d="M106.524 59.9106C105.841 59.9106 105.232 59.793 104.695 59.5576C104.161 59.3223 103.738 58.9959 103.427 58.5782C103.119 58.1573 102.953 57.6701 102.93 57.1166H104.491C104.511 57.4182 104.612 57.68 104.794 57.9021C104.98 58.1209 105.222 58.2899 105.52 58.4092C105.818 58.5285 106.15 58.5882 106.514 58.5882C106.915 58.5882 107.27 58.5186 107.578 58.3794C107.89 58.2402 108.133 58.0463 108.309 57.7977C108.485 57.5458 108.572 57.2558 108.572 56.9277C108.572 56.5863 108.485 56.2863 108.309 56.0278C108.137 55.766 107.883 55.5605 107.548 55.4113C107.217 55.2622 106.816 55.1876 106.345 55.1876H105.485V53.9348H106.345C106.723 53.9348 107.054 53.8668 107.339 53.7309C107.628 53.595 107.853 53.4061 108.016 53.1642C108.178 52.9189 108.259 52.6322 108.259 52.3041C108.259 51.9892 108.188 51.7158 108.045 51.4838C107.906 51.2485 107.707 51.0645 107.449 50.9319C107.194 50.7994 106.892 50.7331 106.544 50.7331C106.213 50.7331 105.903 50.7944 105.614 50.917C105.329 51.0363 105.097 51.2087 104.918 51.4341C104.739 51.6561 104.643 51.9229 104.63 52.2345H103.143C103.16 51.6843 103.322 51.2004 103.631 50.7828C103.942 50.3652 104.353 50.0387 104.864 49.8034C105.374 49.5681 105.941 49.4504 106.564 49.4504C107.217 49.4504 107.78 49.578 108.254 49.8332C108.732 50.0851 109.099 50.4215 109.358 50.8424C109.62 51.2634 109.749 51.7241 109.746 52.2245C109.749 52.7946 109.59 53.2785 109.268 53.6763C108.95 54.074 108.526 54.3408 107.996 54.4767V54.5562C108.672 54.659 109.196 54.9274 109.567 55.3616C109.941 55.7958 110.127 56.3344 110.124 56.9774C110.127 57.5375 109.971 58.0397 109.656 58.4838C109.345 58.9279 108.919 59.2776 108.379 59.5328C107.838 59.7847 107.22 59.9106 106.524 59.9106ZM115.443 59.9106C114.731 59.9106 114.101 59.788 113.554 59.5427C113.01 59.2975 112.585 58.9594 112.276 58.5285C111.968 58.0977 111.816 57.6071 111.819 57.0569C111.816 56.6261 111.903 56.23 112.082 55.8687C112.265 55.5041 112.512 55.2009 112.823 54.9589C113.135 54.7137 113.483 54.5579 113.867 54.4916V54.4319C113.36 54.3093 112.954 54.0375 112.649 53.6166C112.344 53.1957 112.193 52.7118 112.197 52.1649C112.193 51.6445 112.331 51.1805 112.609 50.7728C112.891 50.3619 113.277 50.0387 113.768 49.8034C114.258 49.5681 114.817 49.4504 115.443 49.4504C116.063 49.4504 116.616 49.5697 117.104 49.8084C117.594 50.0437 117.98 50.3668 118.262 50.7778C118.544 51.1855 118.686 51.6478 118.69 52.1649C118.686 52.7118 118.531 53.1957 118.222 53.6166C117.914 54.0375 117.513 54.3093 117.019 54.4319V54.4916C117.4 54.5579 117.743 54.7137 118.048 54.9589C118.357 55.2009 118.602 55.5041 118.784 55.8687C118.97 56.23 119.064 56.6261 119.067 57.0569C119.064 57.6071 118.908 58.0977 118.6 58.5285C118.292 58.9594 117.864 59.2975 117.317 59.5427C116.774 59.788 116.149 59.9106 115.443 59.9106ZM115.443 58.6528C115.864 58.6528 116.229 58.5832 116.537 58.444C116.845 58.3015 117.084 58.1043 117.253 57.8524C117.422 57.5972 117.508 57.2989 117.511 56.9575C117.508 56.6029 117.415 56.2897 117.233 56.0179C117.054 55.7461 116.81 55.5323 116.502 55.3765C116.194 55.2208 115.841 55.1429 115.443 55.1429C115.042 55.1429 114.686 55.2208 114.374 55.3765C114.063 55.5323 113.817 55.7461 113.638 56.0179C113.46 56.2897 113.372 56.6029 113.375 56.9575C113.372 57.2989 113.453 57.5972 113.619 57.8524C113.788 58.1043 114.028 58.3015 114.339 58.444C114.651 58.5832 115.019 58.6528 115.443 58.6528ZM115.443 53.9149C115.781 53.9149 116.081 53.8469 116.343 53.7111C116.605 53.5752 116.81 53.3862 116.96 53.1443C117.112 52.9023 117.19 52.619 117.193 52.2942C117.19 51.976 117.114 51.6976 116.964 51.4589C116.819 51.2203 116.615 51.0363 116.353 50.9071C116.091 50.7745 115.788 50.7082 115.443 50.7082C115.092 50.7082 114.784 50.7745 114.518 50.9071C114.257 51.0363 114.053 51.2203 113.907 51.4589C113.761 51.6976 113.69 51.976 113.693 52.2942C113.69 52.619 113.763 52.9023 113.912 53.1443C114.061 53.3862 114.267 53.5752 114.528 53.7111C114.794 53.8469 115.098 53.9149 115.443 53.9149Z" fill="black"/>
<path d="M102.979 88V86.8864L106.425 83.3168C106.793 82.929 107.096 82.5893 107.335 82.2976C107.576 82.0026 107.757 81.7225 107.876 81.4574C107.996 81.1922 108.055 80.9105 108.055 80.6122C108.055 80.2741 107.976 79.9825 107.817 79.7372C107.658 79.4886 107.441 79.2981 107.165 79.1655C106.89 79.0296 106.58 78.9616 106.236 78.9616C105.871 78.9616 105.553 79.0362 105.281 79.1854C105.009 79.3345 104.801 79.545 104.655 79.8168C104.509 80.0885 104.436 80.4067 104.436 80.7713H102.969C102.969 80.1515 103.112 79.6096 103.397 79.1456C103.682 78.6816 104.073 78.322 104.57 78.0668C105.067 77.8082 105.633 77.679 106.266 77.679C106.905 77.679 107.469 77.8066 107.956 78.0618C108.446 78.3137 108.829 78.6584 109.104 79.0959C109.379 79.5301 109.517 80.0206 109.517 80.5675C109.517 80.9453 109.446 81.3149 109.303 81.6761C109.164 82.0374 108.92 82.4401 108.572 82.8842C108.224 83.325 107.741 83.8603 107.121 84.4901L105.097 86.608V86.6825H109.681V88H102.979ZM115.12 88.1392C114.666 88.1326 114.219 88.0497 113.778 87.8906C113.34 87.7315 112.942 87.4664 112.585 87.0952C112.227 86.724 111.94 86.2251 111.724 85.5987C111.512 84.9723 111.406 84.1901 111.406 83.2521C111.406 82.3639 111.494 81.575 111.67 80.8857C111.849 80.1963 112.106 79.6146 112.44 79.1406C112.775 78.6634 113.179 78.3004 113.653 78.0518C114.127 77.8033 114.659 77.679 115.249 77.679C115.856 77.679 116.394 77.7983 116.865 78.0369C117.336 78.2756 117.717 78.6054 118.009 79.0263C118.304 79.4472 118.491 79.9261 118.57 80.4631H117.054C116.951 80.0388 116.747 79.6925 116.442 79.424C116.138 79.1555 115.74 79.0213 115.249 79.0213C114.504 79.0213 113.922 79.3461 113.504 79.9957C113.09 80.6454 112.881 81.5485 112.878 82.7053H112.952C113.128 82.4169 113.344 82.1716 113.599 81.9695C113.857 81.764 114.146 81.6065 114.464 81.4972C114.785 81.3845 115.123 81.3281 115.478 81.3281C116.068 81.3281 116.602 81.4723 117.079 81.7607C117.559 82.0457 117.942 82.4401 118.227 82.9439C118.512 83.4477 118.655 84.0244 118.655 84.674C118.655 85.3236 118.507 85.9119 118.212 86.4389C117.921 86.9659 117.51 87.3835 116.979 87.6918C116.449 87.9967 115.829 88.1458 115.12 88.1392ZM115.115 86.8466C115.506 86.8466 115.856 86.7505 116.164 86.5582C116.472 86.366 116.716 86.1075 116.895 85.7827C117.074 85.4579 117.163 85.0949 117.163 84.6939C117.163 84.3028 117.076 83.9465 116.9 83.625C116.728 83.3035 116.489 83.0483 116.184 82.8594C115.882 82.6705 115.538 82.576 115.15 82.576C114.855 82.576 114.581 82.6323 114.33 82.745C114.081 82.8577 113.862 83.0135 113.673 83.2124C113.484 83.4112 113.335 83.6399 113.226 83.8984C113.12 84.1536 113.067 84.4238 113.067 84.7088C113.067 85.09 113.155 85.4429 113.33 85.7678C113.509 86.0926 113.753 86.3544 114.061 86.5533C114.373 86.7488 114.724 86.8466 115.115 86.8466Z" fill="black"/>
<path d="M134.119 20.8182H135.983L139.224 28.733H139.344L142.585 20.8182H144.45V31H142.988V23.6321H142.893L139.891 30.9851H138.678L135.675 23.6271H135.58V31H134.119V20.8182Z" fill="black"/>
<path d="M133.766 57.7828V56.5399L138.165 49.5896H139.145V51.4192H138.523L135.376 56.4007V56.4802H141.407V57.7828H133.766ZM138.593 59.7714V57.4049L138.603 56.8382V49.5896H140.06V59.7714H138.593ZM146.684 59.9405C145.899 59.9371 145.228 59.73 144.671 59.319C144.114 58.908 143.688 58.3098 143.393 57.5243C143.098 56.7388 142.951 55.7925 142.951 54.6855C142.951 53.5818 143.098 52.6388 143.393 51.8567C143.691 51.0745 144.119 50.4779 144.676 50.0669C145.236 49.6559 145.905 49.4504 146.684 49.4504C147.463 49.4504 148.131 49.6575 148.688 50.0718C149.245 50.4828 149.671 51.0794 149.966 51.8616C150.264 52.6405 150.413 53.5818 150.413 54.6855C150.413 55.7958 150.266 56.7437 149.971 57.5292C149.676 58.3114 149.25 58.9097 148.693 59.324C148.136 59.735 147.467 59.9405 146.684 59.9405ZM146.684 58.613C147.374 58.613 147.912 58.2766 148.3 57.6038C148.691 56.931 148.887 55.9582 148.887 54.6855C148.887 53.8403 148.797 53.1261 148.618 52.5427C148.443 51.9561 148.189 51.512 147.858 51.2103C147.529 50.9054 147.138 50.753 146.684 50.753C145.998 50.753 145.46 51.091 145.069 51.7672C144.677 52.4433 144.48 53.4161 144.477 54.6855C144.477 55.534 144.565 56.2515 144.74 56.8382C144.919 57.4215 145.173 57.864 145.501 58.1656C145.829 58.4639 146.224 58.613 146.684 58.613Z" fill="black"/>
<path d="M133.979 88V86.8864L137.425 83.3168C137.793 82.929 138.096 82.5893 138.335 82.2976C138.576 82.0026 138.757 81.7225 138.876 81.4574C138.996 81.1922 139.055 80.9105 139.055 80.6122C139.055 80.2741 138.976 79.9825 138.817 79.7372C138.658 79.4886 138.441 79.2981 138.165 79.1655C137.89 79.0296 137.58 78.9616 137.236 78.9616C136.871 78.9616 136.553 79.0362 136.281 79.1854C136.009 79.3345 135.801 79.545 135.655 79.8168C135.509 80.0885 135.436 80.4067 135.436 80.7713H133.969C133.969 80.1515 134.112 79.6096 134.397 79.1456C134.682 78.6816 135.073 78.322 135.57 78.0668C136.067 77.8082 136.633 77.679 137.266 77.679C137.905 77.679 138.469 77.8066 138.956 78.0618C139.446 78.3137 139.829 78.6584 140.104 79.0959C140.379 79.5301 140.517 80.0206 140.517 80.5675C140.517 80.9453 140.446 81.3149 140.303 81.6761C140.164 82.0374 139.92 82.4401 139.572 82.8842C139.224 83.325 138.741 83.8603 138.121 84.4901L136.097 86.608V86.6825H140.681V88H133.979ZM142.908 88L147.353 79.2102V79.1357H142.212V77.8182H148.944V79.1804L144.514 88H142.908Z" fill="black"/>
<path d="M166.119 31V20.8182H167.655V29.6776H172.268V31H166.119Z" fill="black"/>
<path d="M165.766 57.7828V56.5399L170.165 49.5896H171.145V51.4192H170.523L167.376 56.4007V56.4802H173.407V57.7828H165.766ZM170.593 59.7714V57.4049L170.603 56.8382V49.5896H172.06V59.7714H170.593ZM175.14 59.7714V58.6578L178.585 55.0882C178.953 54.7004 179.256 54.3607 179.495 54.069C179.737 53.774 179.917 53.494 180.037 53.2288C180.156 52.9637 180.216 52.6819 180.216 52.3836C180.216 52.0456 180.136 51.7539 179.977 51.5086C179.818 51.2601 179.601 51.0695 179.326 50.9369C179.051 50.801 178.741 50.7331 178.396 50.7331C178.031 50.7331 177.713 50.8076 177.441 50.9568C177.17 51.1059 176.961 51.3164 176.815 51.5882C176.669 51.86 176.596 52.1781 176.596 52.5427H175.13C175.13 51.9229 175.272 51.381 175.557 50.917C175.842 50.453 176.233 50.0934 176.73 49.8382C177.228 49.5797 177.793 49.4504 178.426 49.4504C179.065 49.4504 179.629 49.578 180.116 49.8332C180.607 50.0851 180.989 50.4298 181.265 50.8673C181.54 51.3015 181.677 51.792 181.677 52.3389C181.677 52.7167 181.606 53.0863 181.463 53.4476C181.324 53.8088 181.081 54.2115 180.733 54.6557C180.385 55.0965 179.901 55.6317 179.281 56.2615L177.257 58.3794V58.454H181.841V59.7714H175.14Z" fill="black"/>
<path d="M165.979 88V86.8864L169.425 83.3168C169.793 82.929 170.096 82.5893 170.335 82.2976C170.576 82.0026 170.757 81.7225 170.876 81.4574C170.996 81.1922 171.055 80.9105 171.055 80.6122C171.055 80.2741 170.976 79.9825 170.817 79.7372C170.658 79.4886 170.441 79.2981 170.165 79.1655C169.89 79.0296 169.58 78.9616 169.236 78.9616C168.871 78.9616 168.553 79.0362 168.281 79.1854C168.009 79.3345 167.801 79.545 167.655 79.8168C167.509 80.0885 167.436 80.4067 167.436 80.7713H165.969C165.969 80.1515 166.112 79.6096 166.397 79.1456C166.682 78.6816 167.073 78.322 167.57 78.0668C168.067 77.8082 168.633 77.679 169.266 77.679C169.905 77.679 170.469 77.8066 170.956 78.0618C171.446 78.3137 171.829 78.6584 172.104 79.0959C172.379 79.5301 172.517 80.0206 172.517 80.5675C172.517 80.9453 172.446 81.3149 172.303 81.6761C172.164 82.0374 171.92 82.4401 171.572 82.8842C171.224 83.325 170.741 83.8603 170.121 84.4901L168.097 86.608V86.6825H172.681V88H165.979ZM178.006 88.1392C177.293 88.1392 176.663 88.0166 176.116 87.7713C175.573 87.526 175.147 87.188 174.839 86.7571C174.531 86.3262 174.378 85.8357 174.381 85.2855C174.378 84.8546 174.466 84.4586 174.645 84.0973C174.827 83.7327 175.074 83.4295 175.386 83.1875C175.697 82.9422 176.045 82.7865 176.43 82.7202V82.6605C175.923 82.5379 175.517 82.2661 175.212 81.8452C174.907 81.4242 174.756 80.9403 174.759 80.3935C174.756 79.8731 174.893 79.4091 175.172 79.0014C175.454 78.5904 175.84 78.2673 176.33 78.032C176.821 77.7966 177.379 77.679 178.006 77.679C178.625 77.679 179.179 77.7983 179.666 78.0369C180.157 78.2723 180.543 78.5954 180.825 79.0064C181.106 79.4141 181.249 79.8764 181.252 80.3935C181.249 80.9403 181.093 81.4242 180.785 81.8452C180.477 82.2661 180.076 82.5379 179.582 82.6605V82.7202C179.963 82.7865 180.306 82.9422 180.611 83.1875C180.919 83.4295 181.164 83.7327 181.347 84.0973C181.532 84.4586 181.627 84.8546 181.63 85.2855C181.627 85.8357 181.471 86.3262 181.163 86.7571C180.854 87.188 180.427 87.526 179.88 87.7713C179.336 88.0166 178.712 88.1392 178.006 88.1392ZM178.006 86.8814C178.427 86.8814 178.791 86.8118 179.099 86.6726C179.408 86.5301 179.646 86.3329 179.815 86.081C179.984 85.8258 180.071 85.5275 180.074 85.1861C180.071 84.8314 179.978 84.5182 179.795 84.2464C179.616 83.9747 179.373 83.7609 179.065 83.6051C178.756 83.4493 178.403 83.3714 178.006 83.3714C177.605 83.3714 177.248 83.4493 176.937 83.6051C176.625 83.7609 176.38 83.9747 176.201 84.2464C176.022 84.5182 175.934 84.8314 175.938 85.1861C175.934 85.5275 176.015 85.8258 176.181 86.081C176.35 86.3329 176.59 86.5301 176.902 86.6726C177.214 86.8118 177.581 86.8814 178.006 86.8814ZM178.006 82.1435C178.344 82.1435 178.644 82.0755 178.906 81.9396C179.167 81.8037 179.373 81.6148 179.522 81.3729C179.674 81.1309 179.752 80.8475 179.756 80.5227C179.752 80.2045 179.676 79.9261 179.527 79.6875C179.381 79.4489 179.177 79.2649 178.915 79.1357C178.654 79.0031 178.35 78.9368 178.006 78.9368C177.654 78.9368 177.346 79.0031 177.081 79.1357C176.819 79.2649 176.615 79.4489 176.469 79.6875C176.324 79.9261 176.252 80.2045 176.256 80.5227C176.252 80.8475 176.325 81.1309 176.474 81.3729C176.624 81.6148 176.829 81.8037 177.091 81.9396C177.356 82.0755 177.661 82.1435 178.006 82.1435Z" fill="black"/>
<path d="M198.188 20.8182L200.624 24.8004H200.703L203.139 20.8182H204.919L201.747 25.9091L204.939 31H203.149L200.703 27.0724H200.624L198.178 31H196.388L199.634 25.9091L196.408 20.8182H198.188ZM206.443 31V20.8182H207.979V29.6776H212.593V31H206.443Z" fill="black"/>
<path d="M196.766 57.7828V56.5399L201.165 49.5896H202.145V51.4192H201.523L198.376 56.4007V56.4802H204.407V57.7828H196.766ZM201.593 59.7714V57.4049L201.603 56.8382V49.5896H203.06V59.7714H201.593ZM205.926 57.7828V56.5399L210.326 49.5896H211.305V51.4192H210.684L207.537 56.4007V56.4802H213.567V57.7828H205.926ZM210.753 59.7714V57.4049L210.763 56.8382V49.5896H212.22V59.7714H210.753Z" fill="black"/>
<path d="M196.979 88V86.8864L200.425 83.3168C200.793 82.929 201.096 82.5893 201.335 82.2976C201.576 82.0026 201.757 81.7225 201.876 81.4574C201.996 81.1922 202.055 80.9105 202.055 80.6122C202.055 80.2741 201.976 79.9825 201.817 79.7372C201.658 79.4886 201.441 79.2981 201.165 79.1655C200.89 79.0296 200.58 78.9616 200.236 78.9616C199.871 78.9616 199.553 79.0362 199.281 79.1854C199.009 79.3345 198.801 79.545 198.655 79.8168C198.509 80.0885 198.436 80.4067 198.436 80.7713H196.969C196.969 80.1515 197.112 79.6096 197.397 79.1456C197.682 78.6816 198.073 78.322 198.57 78.0668C199.067 77.8082 199.633 77.679 200.266 77.679C200.905 77.679 201.469 77.8066 201.956 78.0618C202.446 78.3137 202.829 78.6584 203.104 79.0959C203.379 79.5301 203.517 80.0206 203.517 80.5675C203.517 80.9453 203.446 81.3149 203.303 81.6761C203.164 82.0374 202.92 82.4401 202.572 82.8842C202.224 83.325 201.741 83.8603 201.121 84.4901L199.097 86.608V86.6825H203.681V88H196.979ZM208.951 77.679C209.405 77.6823 209.853 77.7652 210.293 77.9276C210.734 78.09 211.132 78.3551 211.487 78.723C211.844 79.0909 212.129 79.5881 212.342 80.2145C212.557 80.8376 212.666 81.6132 212.67 82.5412C212.67 83.4328 212.58 84.2266 212.401 84.9226C212.222 85.6153 211.965 86.2003 211.631 86.6776C211.299 87.1548 210.897 87.5178 210.423 87.7663C209.949 88.0149 209.415 88.1392 208.822 88.1392C208.215 88.1392 207.677 88.0199 207.206 87.7812C206.735 87.5426 206.353 87.2128 206.058 86.7919C205.763 86.3677 205.579 85.8804 205.506 85.3303H207.022C207.121 85.7678 207.324 86.1224 207.629 86.3942C207.937 86.6626 208.335 86.7969 208.822 86.7969C209.567 86.7969 210.149 86.4721 210.567 85.8224C210.984 85.1695 211.195 84.258 211.198 83.0881H211.119C210.946 83.3731 210.731 83.6184 210.472 83.8239C210.217 84.0294 209.93 84.1884 209.612 84.3011C209.294 84.4138 208.954 84.4702 208.593 84.4702C208.006 84.4702 207.473 84.326 206.992 84.0376C206.512 83.7493 206.129 83.3532 205.844 82.8494C205.559 82.3456 205.416 81.7706 205.416 81.1243C205.416 80.4813 205.562 79.898 205.854 79.3743C206.149 78.8506 206.56 78.4363 207.087 78.1314C207.617 77.8232 208.238 77.6723 208.951 77.679ZM208.956 78.9716C208.568 78.9716 208.219 79.0677 207.907 79.2599C207.599 79.4489 207.355 79.7057 207.176 80.0305C206.997 80.352 206.908 80.71 206.908 81.1044C206.908 81.4988 206.994 81.8568 207.166 82.1783C207.342 82.4964 207.58 82.75 207.882 82.9389C208.187 83.1245 208.535 83.2173 208.926 83.2173C209.218 83.2173 209.49 83.161 209.741 83.0483C209.993 82.9356 210.214 82.7798 210.403 82.581C210.592 82.3788 210.739 82.1501 210.845 81.8949C210.951 81.6397 211.004 81.3712 211.004 81.0895C211.004 80.715 210.915 80.367 210.736 80.0455C210.56 79.724 210.318 79.4654 210.01 79.2699C209.702 79.071 209.35 78.9716 208.956 78.9716Z" fill="black"/>
<path d="M227.979 31V29.8864L231.425 26.3168C231.793 25.929 232.096 25.5893 232.335 25.2976C232.576 25.0026 232.757 24.7225 232.876 24.4574C232.996 24.1922 233.055 23.9105 233.055 23.6122C233.055 23.2741 232.976 22.9825 232.817 22.7372C232.658 22.4886 232.441 22.2981 232.165 22.1655C231.89 22.0296 231.58 21.9616 231.236 21.9616C230.871 21.9616 230.553 22.0362 230.281 22.1854C230.009 22.3345 229.801 22.545 229.655 22.8168C229.509 23.0885 229.436 23.4067 229.436 23.7713H227.969C227.969 23.1515 228.112 22.6096 228.397 22.1456C228.682 21.6816 229.073 21.322 229.57 21.0668C230.067 20.8082 230.633 20.679 231.266 20.679C231.905 20.679 232.469 20.8066 232.956 21.0618C233.446 21.3137 233.829 21.6584 234.104 22.0959C234.379 22.5301 234.517 23.0206 234.517 23.5675C234.517 23.9453 234.446 24.3149 234.303 24.6761C234.164 25.0374 233.92 25.4401 233.572 25.8842C233.224 26.325 232.741 26.8603 232.121 27.4901L230.097 29.608V29.6825H234.681V31H227.979ZM236.705 31V20.8182H238.241V29.6776H242.854V31H236.705Z" fill="black"/>
<path d="M227.766 57.7828V56.5399L232.165 49.5896H233.145V51.4192H232.523L229.376 56.4007V56.4802H235.407V57.7828H227.766ZM232.593 59.7714V57.4049L232.603 56.8382V49.5896H234.06V59.7714H232.593ZM240.694 59.9106C240.24 59.904 239.793 59.8211 239.352 59.662C238.914 59.503 238.517 59.2378 238.159 58.8666C237.801 58.4954 237.514 57.9966 237.299 57.3701C237.087 56.7437 236.98 55.9615 236.98 55.0236C236.98 54.1353 237.068 53.3465 237.244 52.6571C237.423 51.9677 237.68 51.386 238.015 50.912C238.349 50.4348 238.754 50.0718 239.228 49.8233C239.702 49.5747 240.234 49.4504 240.824 49.4504C241.43 49.4504 241.969 49.5697 242.439 49.8084C242.91 50.047 243.291 50.3768 243.583 50.7977C243.878 51.2186 244.065 51.6976 244.145 52.2345H242.628C242.525 51.8102 242.322 51.4639 242.017 51.1954C241.712 50.927 241.314 50.7927 240.824 50.7927C240.078 50.7927 239.496 51.1175 239.078 51.7672C238.664 52.4168 238.455 53.32 238.452 54.4767H238.527C238.702 54.1883 238.918 53.9431 239.173 53.7409C239.431 53.5354 239.72 53.378 240.038 53.2686C240.359 53.1559 240.698 53.0995 241.052 53.0995C241.642 53.0995 242.176 53.2437 242.653 53.5321C243.134 53.8171 243.516 54.2115 243.801 54.7153C244.087 55.2191 244.229 55.7958 244.229 56.4454C244.229 57.0951 244.082 57.6834 243.787 58.2103C243.495 58.7373 243.084 59.1549 242.554 59.4632C242.023 59.7681 241.404 59.9173 240.694 59.9106ZM240.689 58.618C241.08 58.618 241.43 58.5219 241.738 58.3297C242.047 58.1374 242.29 57.8789 242.469 57.5541C242.648 57.2293 242.738 56.8664 242.738 56.4653C242.738 56.0742 242.65 55.7179 242.474 55.3964C242.302 55.0749 242.063 54.8197 241.758 54.6308C241.457 54.4419 241.112 54.3474 240.724 54.3474C240.429 54.3474 240.156 54.4038 239.904 54.5165C239.655 54.6291 239.436 54.7849 239.248 54.9838C239.059 55.1826 238.909 55.4113 238.8 55.6699C238.694 55.9251 238.641 56.1952 238.641 56.4802C238.641 56.8614 238.729 57.2144 238.904 57.5392C239.083 57.864 239.327 58.1258 239.635 58.3247C239.947 58.5202 240.298 58.618 240.689 58.618Z" fill="black"/>
<path d="M231.524 88.1392C230.841 88.1392 230.232 88.0215 229.695 87.7862C229.161 87.5509 228.738 87.2244 228.427 86.8068C228.119 86.3859 227.953 85.8987 227.93 85.3452H229.491C229.511 85.6468 229.612 85.9086 229.794 86.1307C229.98 86.3494 230.222 86.5185 230.52 86.6378C230.818 86.7571 231.15 86.8168 231.514 86.8168C231.915 86.8168 232.27 86.7472 232.578 86.608C232.89 86.4687 233.133 86.2749 233.309 86.0263C233.485 85.7744 233.572 85.4844 233.572 85.1562C233.572 84.8149 233.485 84.5149 233.309 84.2564C233.137 83.9946 232.883 83.7891 232.548 83.6399C232.217 83.4908 231.816 83.4162 231.345 83.4162H230.485V82.1634H231.345C231.723 82.1634 232.054 82.0954 232.339 81.9595C232.628 81.8236 232.853 81.6347 233.016 81.3928C233.178 81.1475 233.259 80.8608 233.259 80.5327C233.259 80.2178 233.188 79.9444 233.045 79.7124C232.906 79.477 232.707 79.2931 232.449 79.1605C232.194 79.0279 231.892 78.9616 231.544 78.9616C231.213 78.9616 230.903 79.023 230.614 79.1456C230.329 79.2649 230.097 79.4373 229.918 79.6626C229.739 79.8847 229.643 80.1515 229.63 80.4631H228.143C228.16 79.9129 228.322 79.429 228.631 79.0114C228.942 78.5937 229.353 78.2673 229.864 78.032C230.374 77.7966 230.941 77.679 231.564 77.679C232.217 77.679 232.78 77.8066 233.254 78.0618C233.732 78.3137 234.099 78.6501 234.358 79.071C234.62 79.492 234.749 79.9527 234.746 80.4531C234.749 81.0232 234.59 81.5071 234.268 81.9048C233.95 82.3026 233.526 82.5694 232.996 82.7053V82.7848C233.672 82.8875 234.196 83.156 234.567 83.5902C234.941 84.0244 235.127 84.563 235.124 85.206C235.127 85.7661 234.971 86.2682 234.656 86.7124C234.345 87.1565 233.919 87.5062 233.379 87.7614C232.838 88.0133 232.22 88.1392 231.524 88.1392ZM240.548 88.169C239.762 88.1657 239.091 87.9586 238.534 87.5476C237.977 87.1366 237.551 86.5384 237.256 85.7528C236.961 84.9673 236.814 84.0211 236.814 82.9141C236.814 81.8104 236.961 80.8674 237.256 80.0852C237.555 79.303 237.982 78.7064 238.539 78.2955C239.099 77.8845 239.769 77.679 240.548 77.679C241.326 77.679 241.994 77.8861 242.551 78.3004C243.108 78.7114 243.534 79.308 243.829 80.0902C244.127 80.8691 244.276 81.8104 244.276 82.9141C244.276 84.0244 244.129 84.9723 243.834 85.7578C243.539 86.54 243.113 87.1383 242.556 87.5526C241.999 87.9635 241.33 88.169 240.548 88.169ZM240.548 86.8416C241.237 86.8416 241.776 86.5052 242.163 85.8324C242.554 85.1596 242.75 84.1868 242.75 82.9141C242.75 82.0689 242.661 81.3546 242.482 80.7713C242.306 80.1847 242.052 79.7405 241.721 79.4389C241.393 79.134 241.002 78.9815 240.548 78.9815C239.862 78.9815 239.323 79.3196 238.932 79.9957C238.541 80.6719 238.344 81.6446 238.34 82.9141C238.34 83.7625 238.428 84.4801 238.604 85.0668C238.783 85.6501 239.036 86.0926 239.364 86.3942C239.692 86.6925 240.087 86.8416 240.548 86.8416Z" fill="black"/>
<path d="M262.524 31.1392C261.841 31.1392 261.232 31.0215 260.695 30.7862C260.161 30.5509 259.738 30.2244 259.427 29.8068C259.119 29.3859 258.953 28.8987 258.93 28.3452H260.491C260.511 28.6468 260.612 28.9086 260.794 29.1307C260.98 29.3494 261.222 29.5185 261.52 29.6378C261.818 29.7571 262.15 29.8168 262.514 29.8168C262.915 29.8168 263.27 29.7472 263.578 29.608C263.89 29.4687 264.133 29.2749 264.309 29.0263C264.485 28.7744 264.572 28.4844 264.572 28.1562C264.572 27.8149 264.485 27.5149 264.309 27.2564C264.137 26.9946 263.883 26.7891 263.548 26.6399C263.217 26.4908 262.816 26.4162 262.345 26.4162H261.485V25.1634H262.345C262.723 25.1634 263.054 25.0954 263.339 24.9595C263.628 24.8236 263.853 24.6347 264.016 24.3928C264.178 24.1475 264.259 23.8608 264.259 23.5327C264.259 23.2178 264.188 22.9444 264.045 22.7124C263.906 22.477 263.707 22.2931 263.449 22.1605C263.194 22.0279 262.892 21.9616 262.544 21.9616C262.213 21.9616 261.903 22.023 261.614 22.1456C261.329 22.2649 261.097 22.4373 260.918 22.6626C260.739 22.8847 260.643 23.1515 260.63 23.4631H259.143C259.16 22.9129 259.322 22.429 259.631 22.0114C259.942 21.5937 260.353 21.2673 260.864 21.032C261.374 20.7966 261.941 20.679 262.564 20.679C263.217 20.679 263.78 20.8066 264.254 21.0618C264.732 21.3137 265.099 21.6501 265.358 22.071C265.62 22.492 265.749 22.9527 265.746 23.4531C265.749 24.0232 265.59 24.5071 265.268 24.9048C264.95 25.3026 264.526 25.5694 263.996 25.7053V25.7848C264.672 25.8875 265.196 26.156 265.567 26.5902C265.941 27.0244 266.127 27.563 266.124 28.206C266.127 28.7661 265.971 29.2682 265.656 29.7124C265.345 30.1565 264.919 30.5062 264.379 30.7614C263.838 31.0133 263.22 31.1392 262.524 31.1392ZM268.142 31V20.8182H269.678V29.6776H274.292V31H268.142Z" fill="black"/>
<path d="M258.766 57.7828V56.5399L263.165 49.5896H264.145V51.4192H263.523L260.376 56.4007V56.4802H266.407V57.7828H258.766ZM263.593 59.7714V57.4049L263.603 56.8382V49.5896H265.06V59.7714H263.593ZM271.58 59.9106C270.867 59.9106 270.238 59.788 269.691 59.5427C269.147 59.2975 268.721 58.9594 268.413 58.5285C268.105 58.0977 267.952 57.6071 267.956 57.0569C267.952 56.6261 268.04 56.23 268.219 55.8687C268.401 55.5041 268.648 55.2009 268.96 54.9589C269.271 54.7137 269.619 54.5579 270.004 54.4916V54.4319C269.497 54.3093 269.091 54.0375 268.786 53.6166C268.481 53.1957 268.33 52.7118 268.333 52.1649C268.33 51.6445 268.468 51.1805 268.746 50.7728C269.028 50.3619 269.414 50.0387 269.904 49.8034C270.395 49.5681 270.953 49.4504 271.58 49.4504C272.2 49.4504 272.753 49.5697 273.24 49.8084C273.731 50.0437 274.117 50.3668 274.399 50.7778C274.681 51.1855 274.823 51.6478 274.826 52.1649C274.823 52.7118 274.667 53.1957 274.359 53.6166C274.051 54.0375 273.65 54.3093 273.156 54.4319V54.4916C273.537 54.5579 273.88 54.7137 274.185 54.9589C274.493 55.2009 274.739 55.5041 274.921 55.8687C275.106 56.23 275.201 56.6261 275.204 57.0569C275.201 57.6071 275.045 58.0977 274.737 58.5285C274.429 58.9594 274.001 59.2975 273.454 59.5427C272.911 59.788 272.286 59.9106 271.58 59.9106ZM271.58 58.6528C272.001 58.6528 272.365 58.5832 272.674 58.444C272.982 58.3015 273.221 58.1043 273.39 57.8524C273.559 57.5972 273.645 57.2989 273.648 56.9575C273.645 56.6029 273.552 56.2897 273.37 56.0179C273.191 55.7461 272.947 55.5323 272.639 55.3765C272.331 55.2208 271.978 55.1429 271.58 55.1429C271.179 55.1429 270.823 55.2208 270.511 55.3765C270.199 55.5323 269.954 55.7461 269.775 56.0179C269.596 56.2897 269.508 56.6029 269.512 56.9575C269.508 57.2989 269.59 57.5972 269.755 57.8524C269.924 58.1043 270.165 58.3015 270.476 58.444C270.788 58.5832 271.156 58.6528 271.58 58.6528ZM271.58 53.9149C271.918 53.9149 272.218 53.8469 272.48 53.7111C272.742 53.5752 272.947 53.3862 273.096 53.1443C273.249 52.9023 273.327 52.619 273.33 52.2942C273.327 51.976 273.25 51.6976 273.101 51.4589C272.955 51.2203 272.752 51.0363 272.49 50.9071C272.228 50.7745 271.925 50.7082 271.58 50.7082C271.229 50.7082 270.92 50.7745 270.655 50.9071C270.393 51.0363 270.19 51.2203 270.044 51.4589C269.898 51.6976 269.827 51.976 269.83 52.2942C269.827 52.619 269.9 52.9023 270.049 53.1443C270.198 53.3862 270.403 53.5752 270.665 53.7111C270.93 53.8469 271.235 53.9149 271.58 53.9149Z" fill="black"/>
<path d="M262.524 88.1392C261.841 88.1392 261.232 88.0215 260.695 87.7862C260.161 87.5509 259.738 87.2244 259.427 86.8068C259.119 86.3859 258.953 85.8987 258.93 85.3452H260.491C260.511 85.6468 260.612 85.9086 260.794 86.1307C260.98 86.3494 261.222 86.5185 261.52 86.6378C261.818 86.7571 262.15 86.8168 262.514 86.8168C262.915 86.8168 263.27 86.7472 263.578 86.608C263.89 86.4687 264.133 86.2749 264.309 86.0263C264.485 85.7744 264.572 85.4844 264.572 85.1562C264.572 84.8149 264.485 84.5149 264.309 84.2564C264.137 83.9946 263.883 83.7891 263.548 83.6399C263.217 83.4908 262.816 83.4162 262.345 83.4162H261.485V82.1634H262.345C262.723 82.1634 263.054 82.0954 263.339 81.9595C263.628 81.8236 263.853 81.6347 264.016 81.3928C264.178 81.1475 264.259 80.8608 264.259 80.5327C264.259 80.2178 264.188 79.9444 264.045 79.7124C263.906 79.477 263.707 79.2931 263.449 79.1605C263.194 79.0279 262.892 78.9616 262.544 78.9616C262.213 78.9616 261.903 79.023 261.614 79.1456C261.329 79.2649 261.097 79.4373 260.918 79.6626C260.739 79.8847 260.643 80.1515 260.63 80.4631H259.143C259.16 79.9129 259.322 79.429 259.631 79.0114C259.942 78.5937 260.353 78.2673 260.864 78.032C261.374 77.7966 261.941 77.679 262.564 77.679C263.217 77.679 263.78 77.8066 264.254 78.0618C264.732 78.3137 265.099 78.6501 265.358 79.071C265.62 79.492 265.749 79.9527 265.746 80.4531C265.749 81.0232 265.59 81.5071 265.268 81.9048C264.95 82.3026 264.526 82.5694 263.996 82.7053V82.7848C264.672 82.8875 265.196 83.156 265.567 83.5902C265.941 84.0244 266.127 84.563 266.124 85.206C266.127 85.7661 265.971 86.2682 265.656 86.7124C265.345 87.1565 264.919 87.5062 264.379 87.7614C263.838 88.0133 263.22 88.1392 262.524 88.1392ZM271.866 77.8182V88H270.325V79.3594H270.265L267.829 80.9503V79.4787L270.369 77.8182H271.866Z" fill="black"/>
<path d="M293.34 31.1392C292.717 31.1392 292.157 31.0199 291.66 30.7812C291.166 30.5393 290.772 30.2079 290.477 29.7869C290.182 29.366 290.024 28.8854 290.004 28.3452H291.496C291.532 28.7827 291.726 29.1423 292.077 29.424C292.429 29.7057 292.85 29.8466 293.34 29.8466C293.731 29.8466 294.078 29.7571 294.379 29.5781C294.684 29.3958 294.923 29.1456 295.095 28.8274C295.271 28.5092 295.359 28.1463 295.359 27.7386C295.359 27.3243 295.269 26.9548 295.09 26.63C294.911 26.3052 294.664 26.05 294.349 25.8643C294.038 25.6787 293.68 25.5843 293.276 25.581C292.967 25.581 292.657 25.634 292.346 25.7401C292.034 25.8461 291.782 25.9853 291.59 26.1577L290.183 25.9489L290.755 20.8182H296.353V22.1357H292.033L291.71 24.9844H291.769C291.968 24.7921 292.232 24.6314 292.56 24.5021C292.891 24.3729 293.246 24.3082 293.624 24.3082C294.243 24.3082 294.795 24.4557 295.279 24.7507C295.766 25.0457 296.149 25.4484 296.428 25.9588C296.709 26.4659 296.848 27.0492 296.845 27.7088C296.848 28.3684 296.699 28.9567 296.398 29.4737C296.099 29.9908 295.685 30.3984 295.155 30.6967C294.628 30.9917 294.023 31.1392 293.34 31.1392ZM298.8 31V20.8182H300.336V29.6776H304.95V31H298.8Z" fill="black"/>
<path d="M293.34 59.9106C292.717 59.9106 292.157 59.7913 291.66 59.5527C291.166 59.3107 290.772 58.9793 290.477 58.5584C290.182 58.1374 290.024 57.6568 290.004 57.1166H291.496C291.532 57.5541 291.726 57.9137 292.077 58.1954C292.429 58.4772 292.85 58.618 293.34 58.618C293.731 58.618 294.078 58.5285 294.379 58.3495C294.684 58.1673 294.923 57.917 295.095 57.5988C295.271 57.2807 295.359 56.9177 295.359 56.5101C295.359 56.0958 295.269 55.7262 295.09 55.4014C294.911 55.0766 294.664 54.8214 294.349 54.6358C294.038 54.4502 293.68 54.3557 293.276 54.3524C292.967 54.3524 292.657 54.4054 292.346 54.5115C292.034 54.6175 291.782 54.7567 291.59 54.9291L290.183 54.7203L290.755 49.5896H296.353V50.9071H292.033L291.71 53.7558H291.769C291.968 53.5636 292.232 53.4028 292.56 53.2736C292.891 53.1443 293.246 53.0797 293.624 53.0797C294.243 53.0797 294.795 53.2272 295.279 53.5221C295.766 53.8171 296.149 54.2198 296.428 54.7302C296.709 55.2373 296.848 55.8207 296.845 56.4802C296.848 57.1398 296.699 57.7281 296.398 58.2451C296.099 58.7622 295.685 59.1699 295.155 59.4682C294.628 59.7631 294.023 59.9106 293.34 59.9106ZM298.661 59.7714V58.6578L302.106 55.0882C302.474 54.7004 302.778 54.3607 303.016 54.069C303.258 53.774 303.439 53.494 303.558 53.2288C303.677 52.9637 303.737 52.6819 303.737 52.3836C303.737 52.0456 303.657 51.7539 303.498 51.5086C303.339 51.2601 303.122 51.0695 302.847 50.9369C302.572 50.801 302.262 50.7331 301.917 50.7331C301.553 50.7331 301.235 50.8076 300.963 50.9568C300.691 51.1059 300.482 51.3164 300.336 51.5882C300.191 51.86 300.118 52.1781 300.118 52.5427H298.651C298.651 51.9229 298.794 51.381 299.079 50.917C299.364 50.453 299.755 50.0934 300.252 49.8382C300.749 49.5797 301.314 49.4504 301.947 49.4504C302.587 49.4504 303.15 49.578 303.638 49.8332C304.128 50.0851 304.511 50.4298 304.786 50.8673C305.061 51.3015 305.199 51.792 305.199 52.3389C305.199 52.7167 305.127 53.0863 304.985 53.4476C304.846 53.8088 304.602 54.2115 304.254 54.6557C303.906 55.0965 303.422 55.6317 302.802 56.2615L300.779 58.3794V58.454H305.363V59.7714H298.661Z" fill="black"/>
<path d="M293.524 88.1392C292.841 88.1392 292.232 88.0215 291.695 87.7862C291.161 87.5509 290.738 87.2244 290.427 86.8068C290.119 86.3859 289.953 85.8987 289.93 85.3452H291.491C291.511 85.6468 291.612 85.9086 291.794 86.1307C291.98 86.3494 292.222 86.5185 292.52 86.6378C292.818 86.7571 293.15 86.8168 293.514 86.8168C293.915 86.8168 294.27 86.7472 294.578 86.608C294.89 86.4687 295.133 86.2749 295.309 86.0263C295.485 85.7744 295.572 85.4844 295.572 85.1562C295.572 84.8149 295.485 84.5149 295.309 84.2564C295.137 83.9946 294.883 83.7891 294.548 83.6399C294.217 83.4908 293.816 83.4162 293.345 83.4162H292.485V82.1634H293.345C293.723 82.1634 294.054 82.0954 294.339 81.9595C294.628 81.8236 294.853 81.6347 295.016 81.3928C295.178 81.1475 295.259 80.8608 295.259 80.5327C295.259 80.2178 295.188 79.9444 295.045 79.7124C294.906 79.477 294.707 79.2931 294.449 79.1605C294.194 79.0279 293.892 78.9616 293.544 78.9616C293.213 78.9616 292.903 79.023 292.614 79.1456C292.329 79.2649 292.097 79.4373 291.918 79.6626C291.739 79.8847 291.643 80.1515 291.63 80.4631H290.143C290.16 79.9129 290.322 79.429 290.631 79.0114C290.942 78.5937 291.353 78.2673 291.864 78.032C292.374 77.7966 292.941 77.679 293.564 77.679C294.217 77.679 294.78 77.8066 295.254 78.0618C295.732 78.3137 296.099 78.6501 296.358 79.071C296.62 79.492 296.749 79.9527 296.746 80.4531C296.749 81.0232 296.59 81.5071 296.268 81.9048C295.95 82.3026 295.526 82.5694 294.996 82.7053V82.7848C295.672 82.8875 296.196 83.156 296.567 83.5902C296.941 84.0244 297.127 84.563 297.124 85.206C297.127 85.7661 296.971 86.2682 296.656 86.7124C296.345 87.1565 295.919 87.5062 295.379 87.7614C294.838 88.0133 294.22 88.1392 293.524 88.1392ZM299.003 88V86.8864L302.448 83.3168C302.816 82.929 303.119 82.5893 303.358 82.2976C303.6 82.0026 303.781 81.7225 303.9 81.4574C304.019 81.1922 304.079 80.9105 304.079 80.6122C304.079 80.2741 303.999 79.9825 303.84 79.7372C303.681 79.4886 303.464 79.2981 303.189 79.1655C302.914 79.0296 302.604 78.9616 302.259 78.9616C301.895 78.9616 301.576 79.0362 301.305 79.1854C301.033 79.3345 300.824 79.545 300.678 79.8168C300.532 80.0885 300.46 80.4067 300.46 80.7713H298.993C298.993 80.1515 299.135 79.6096 299.42 79.1456C299.705 78.6816 300.097 78.322 300.594 78.0668C301.091 77.8082 301.656 77.679 302.289 77.679C302.929 77.679 303.492 77.8066 303.979 78.0618C304.47 78.3137 304.853 78.6584 305.128 79.0959C305.403 79.5301 305.54 80.0206 305.54 80.5675C305.54 80.9453 305.469 81.3149 305.327 81.6761C305.188 82.0374 304.944 82.4401 304.596 82.8842C304.248 83.325 303.764 83.8603 303.144 84.4901L301.121 86.608V86.6825H305.705V88H299.003Z" fill="black"/>
<path d="M321.322 31L325.767 22.2102V22.1357H320.626V20.8182H327.358V22.1804L322.928 31H321.322ZM329.226 31V20.8182H330.762V29.6776H335.376V31H329.226Z" fill="black"/>
<path d="M324.34 59.9106C323.717 59.9106 323.157 59.7913 322.66 59.5527C322.166 59.3107 321.772 58.9793 321.477 58.5584C321.182 58.1374 321.024 57.6568 321.004 57.1166H322.496C322.532 57.5541 322.726 57.9137 323.077 58.1954C323.429 58.4772 323.85 58.618 324.34 58.618C324.731 58.618 325.078 58.5285 325.379 58.3495C325.684 58.1673 325.923 57.917 326.095 57.5988C326.271 57.2807 326.359 56.9177 326.359 56.5101C326.359 56.0958 326.269 55.7262 326.09 55.4014C325.911 55.0766 325.664 54.8214 325.349 54.6358C325.038 54.4502 324.68 54.3557 324.276 54.3524C323.967 54.3524 323.657 54.4054 323.346 54.5115C323.034 54.6175 322.782 54.7567 322.59 54.9291L321.183 54.7203L321.755 49.5896H327.353V50.9071H323.033L322.71 53.7558H322.769C322.968 53.5636 323.232 53.4028 323.56 53.2736C323.891 53.1443 324.246 53.0797 324.624 53.0797C325.243 53.0797 325.795 53.2272 326.279 53.5221C326.766 53.8171 327.149 54.2198 327.428 54.7302C327.709 55.2373 327.848 55.8207 327.845 56.4802C327.848 57.1398 327.699 57.7281 327.398 58.2451C327.099 58.7622 326.685 59.1699 326.155 59.4682C325.628 59.7631 325.023 59.9106 324.34 59.9106ZM333.216 59.9106C332.762 59.904 332.314 59.8211 331.873 59.662C331.436 59.503 331.038 59.2378 330.68 58.8666C330.322 58.4954 330.036 57.9966 329.82 57.3701C329.608 56.7437 329.502 55.9615 329.502 55.0236C329.502 54.1353 329.59 53.3465 329.765 52.6571C329.944 51.9677 330.201 51.386 330.536 50.912C330.871 50.4348 331.275 50.0718 331.749 49.8233C332.223 49.5747 332.755 49.4504 333.345 49.4504C333.952 49.4504 334.49 49.5697 334.961 49.8084C335.431 50.047 335.813 50.3768 336.104 50.7977C336.399 51.2186 336.586 51.6976 336.666 52.2345H335.15C335.047 51.8102 334.843 51.4639 334.538 51.1954C334.233 50.927 333.836 50.7927 333.345 50.7927C332.599 50.7927 332.018 51.1175 331.6 51.7672C331.186 52.4168 330.977 53.32 330.974 54.4767H331.048C331.224 54.1883 331.439 53.9431 331.694 53.7409C331.953 53.5354 332.241 53.378 332.559 53.2686C332.881 53.1559 333.219 53.0995 333.574 53.0995C334.164 53.0995 334.697 53.2437 335.175 53.5321C335.655 53.8171 336.038 54.2115 336.323 54.7153C336.608 55.2191 336.751 55.7958 336.751 56.4454C336.751 57.0951 336.603 57.6834 336.308 58.2103C336.016 58.7373 335.605 59.1549 335.075 59.4632C334.545 59.7681 333.925 59.9173 333.216 59.9106ZM333.211 58.618C333.602 58.618 333.952 58.5219 334.26 58.3297C334.568 58.1374 334.812 57.8789 334.991 57.5541C335.17 57.2293 335.259 56.8664 335.259 56.4653C335.259 56.0742 335.171 55.7179 334.996 55.3964C334.823 55.0749 334.585 54.8197 334.28 54.6308C333.978 54.4419 333.633 54.3474 333.246 54.3474C332.951 54.3474 332.677 54.4038 332.425 54.5165C332.177 54.6291 331.958 54.7849 331.769 54.9838C331.58 55.1826 331.431 55.4113 331.322 55.6699C331.215 55.9251 331.162 56.1952 331.162 56.4802C331.162 56.8614 331.25 57.2144 331.426 57.5392C331.605 57.864 331.849 58.1258 332.157 58.3247C332.468 58.5202 332.82 58.618 333.211 58.618Z" fill="black"/>
<path d="M324.524 88.1392C323.841 88.1392 323.232 88.0215 322.695 87.7862C322.161 87.5509 321.738 87.2244 321.427 86.8068C321.119 86.3859 320.953 85.8987 320.93 85.3452H322.491C322.511 85.6468 322.612 85.9086 322.794 86.1307C322.98 86.3494 323.222 86.5185 323.52 86.6378C323.818 86.7571 324.15 86.8168 324.514 86.8168C324.915 86.8168 325.27 86.7472 325.578 86.608C325.89 86.4687 326.133 86.2749 326.309 86.0263C326.485 85.7744 326.572 85.4844 326.572 85.1562C326.572 84.8149 326.485 84.5149 326.309 84.2564C326.137 83.9946 325.883 83.7891 325.548 83.6399C325.217 83.4908 324.816 83.4162 324.345 83.4162H323.485V82.1634H324.345C324.723 82.1634 325.054 82.0954 325.339 81.9595C325.628 81.8236 325.853 81.6347 326.016 81.3928C326.178 81.1475 326.259 80.8608 326.259 80.5327C326.259 80.2178 326.188 79.9444 326.045 79.7124C325.906 79.477 325.707 79.2931 325.449 79.1605C325.194 79.0279 324.892 78.9616 324.544 78.9616C324.213 78.9616 323.903 79.023 323.614 79.1456C323.329 79.2649 323.097 79.4373 322.918 79.6626C322.739 79.8847 322.643 80.1515 322.63 80.4631H321.143C321.16 79.9129 321.322 79.429 321.631 79.0114C321.942 78.5937 322.353 78.2673 322.864 78.032C323.374 77.7966 323.941 77.679 324.564 77.679C325.217 77.679 325.78 77.8066 326.254 78.0618C326.732 78.3137 327.099 78.6501 327.358 79.071C327.62 79.492 327.749 79.9527 327.746 80.4531C327.749 81.0232 327.59 81.5071 327.268 81.9048C326.95 82.3026 326.526 82.5694 325.996 82.7053V82.7848C326.672 82.8875 327.196 83.156 327.567 83.5902C327.941 84.0244 328.127 84.563 328.124 85.206C328.127 85.7661 327.971 86.2682 327.656 86.7124C327.345 87.1565 326.919 87.5062 326.379 87.7614C325.838 88.0133 325.22 88.1392 324.524 88.1392ZM333.548 88.1392C332.865 88.1392 332.255 88.0215 331.718 87.7862C331.184 87.5509 330.762 87.2244 330.45 86.8068C330.142 86.3859 329.976 85.8987 329.953 85.3452H331.514C331.534 85.6468 331.635 85.9086 331.817 86.1307C332.003 86.3494 332.245 86.5185 332.543 86.6378C332.842 86.7571 333.173 86.8168 333.538 86.8168C333.939 86.8168 334.293 86.7472 334.602 86.608C334.913 86.4687 335.157 86.2749 335.332 86.0263C335.508 85.7744 335.596 85.4844 335.596 85.1562C335.596 84.8149 335.508 84.5149 335.332 84.2564C335.16 83.9946 334.906 83.7891 334.572 83.6399C334.24 83.4908 333.839 83.4162 333.369 83.4162H332.509V82.1634H333.369C333.746 82.1634 334.078 82.0954 334.363 81.9595C334.651 81.8236 334.877 81.6347 335.039 81.3928C335.201 81.1475 335.283 80.8608 335.283 80.5327C335.283 80.2178 335.211 79.9444 335.069 79.7124C334.93 79.477 334.731 79.2931 334.472 79.1605C334.217 79.0279 333.915 78.9616 333.567 78.9616C333.236 78.9616 332.926 79.023 332.638 79.1456C332.353 79.2649 332.121 79.4373 331.942 79.6626C331.763 79.8847 331.667 80.1515 331.653 80.4631H330.167C330.183 79.9129 330.346 79.429 330.654 79.0114C330.966 78.5937 331.377 78.2673 331.887 78.032C332.397 77.7966 332.964 77.679 333.587 77.679C334.24 77.679 334.804 77.8066 335.278 78.0618C335.755 78.3137 336.123 78.6501 336.381 79.071C336.643 79.492 336.772 79.9527 336.769 80.4531C336.772 81.0232 336.613 81.5071 336.292 81.9048C335.974 82.3026 335.549 82.5694 335.019 82.7053V82.7848C335.695 82.8875 336.219 83.156 336.59 83.5902C336.965 84.0244 337.15 84.563 337.147 85.206C337.15 85.7661 336.995 86.2682 336.68 86.7124C336.368 87.1565 335.942 87.5062 335.402 87.7614C334.862 88.0133 334.244 88.1392 333.548 88.1392Z" fill="black"/>
<line x1="60.5" y1="15" x2="60.5" y2="96" stroke="black"/>
<line x1="11" y1="39.5" x2="339" y2="39.5" stroke="black"/>
<line x1="11" y1="69.5" x2="339" y2="69.5" stroke="black"/>
</svg>
