<svg width="222" height="41" viewBox="0 0 222 41" fill="none" xmlns="http://www.w3.org/2000/svg">
<circle cx="27" cy="12" r="12" fill="#4CB71A"/>
<circle cx="114" cy="12" r="12" fill="#4CB71A"/>
<circle cx="201" cy="12" r="11" fill="white" stroke="#CE2C43" stroke-width="2"/>
<line x1="46" y1="11" x2="94" y2="11" stroke="#4CB71A" stroke-width="2"/>
<line x1="133" y1="11" x2="181" y2="11" stroke="#4CB71A" stroke-width="2"/>
<path fill-rule="evenodd" clip-rule="evenodd" d="M120.036 7.7636C120.388 8.11508 120.388 8.68492 120.036 9.0364L112.836 16.2364C112.485 16.5879 111.915 16.5879 111.564 16.2364L107.964 12.6364C107.612 12.2849 107.612 11.7151 107.964 11.3636C108.315 11.0121 108.885 11.0121 109.236 11.3636L112.2 14.3272L118.764 7.7636C119.115 7.41213 119.685 7.41213 120.036 7.7636Z" fill="white"/>
<path fill-rule="evenodd" clip-rule="evenodd" d="M33.0363 7.7636C33.3878 8.11508 33.3878 8.68492 33.0363 9.0364L25.8363 16.2364C25.4849 16.5879 24.915 16.5879 24.5636 16.2364L20.9636 12.6364C20.6121 12.2849 20.6121 11.7151 20.9636 11.3636C21.315 11.0121 21.8849 11.0121 22.2363 11.3636L25.2 14.3272L31.7636 7.7636C32.115 7.41213 32.6849 7.41213 33.0363 7.7636Z" fill="white"/>
<path d="M200.852 16.1193C200.29 16.1193 199.788 16.0227 199.348 15.8295C198.911 15.6364 198.563 15.3679 198.304 15.0241C198.048 14.6776 197.909 14.2756 197.886 13.8182H198.96C198.983 14.0994 199.08 14.3423 199.25 14.5469C199.42 14.7486 199.643 14.9048 199.919 15.0156C200.195 15.1264 200.5 15.1818 200.835 15.1818C201.21 15.1818 201.543 15.1165 201.832 14.9858C202.122 14.8551 202.349 14.6733 202.514 14.4403C202.679 14.2074 202.761 13.9375 202.761 13.6307C202.761 13.3097 202.682 13.027 202.523 12.7827C202.364 12.5355 202.131 12.3423 201.824 12.2031C201.517 12.0639 201.142 11.9943 200.699 11.9943H200V11.0568H200.699C201.045 11.0568 201.349 10.9943 201.611 10.8693C201.875 10.7443 202.081 10.5682 202.229 10.3409C202.379 10.1136 202.455 9.84659 202.455 9.53977C202.455 9.24432 202.389 8.98722 202.259 8.76847C202.128 8.54972 201.943 8.37926 201.705 8.2571C201.469 8.13494 201.19 8.07386 200.869 8.07386C200.568 8.07386 200.284 8.12926 200.017 8.24006C199.753 8.34801 199.537 8.50568 199.369 8.71307C199.202 8.91761 199.111 9.16477 199.097 9.45455H198.074C198.091 8.99716 198.229 8.59659 198.487 8.25284C198.746 7.90625 199.084 7.63636 199.501 7.44318C199.922 7.25 200.384 7.15341 200.886 7.15341C201.426 7.15341 201.889 7.26278 202.276 7.48153C202.662 7.69744 202.959 7.98295 203.166 8.33807C203.374 8.69318 203.477 9.0767 203.477 9.48864C203.477 9.98011 203.348 10.3991 203.089 10.7457C202.834 11.0923 202.486 11.3324 202.045 11.4659V11.5341C202.597 11.625 203.027 11.8594 203.337 12.2372C203.646 12.6122 203.801 13.0767 203.801 13.6307C203.801 14.1051 203.672 14.5312 203.413 14.9091C203.158 15.2841 202.808 15.5795 202.365 15.7955C201.922 16.0114 201.418 16.1193 200.852 16.1193Z" fill="#941214"/>
<path d="M91.799 38V30.7273H94.3913C94.9571 30.7273 95.4259 30.8303 95.7976 31.0362C96.1693 31.2422 96.4474 31.5239 96.6321 31.8814C96.8168 32.2365 96.9091 32.6366 96.9091 33.0817C96.9091 33.5291 96.8156 33.9316 96.6286 34.2891C96.4439 34.6442 96.1645 34.9259 95.7905 35.1342C95.4188 35.3402 94.9512 35.4432 94.3878 35.4432H92.6051V34.5128H94.2884C94.6458 34.5128 94.9358 34.4512 95.1584 34.3281C95.3809 34.2027 95.5443 34.0322 95.6484 33.8168C95.7526 33.6013 95.8047 33.3563 95.8047 33.0817C95.8047 32.8071 95.7526 32.5632 95.6484 32.3501C95.5443 32.1371 95.3797 31.9702 95.1548 31.8494C94.9323 31.7287 94.6387 31.6683 94.2741 31.6683H92.8963V38H91.799ZM99.6488 38.1207C99.3031 38.1207 98.9906 38.0568 98.7113 37.929C98.4319 37.7988 98.2106 37.6106 98.0472 37.3643C97.8862 37.1181 97.8058 36.8163 97.8058 36.4588C97.8058 36.151 97.8649 35.8977 97.9833 35.6989C98.1017 35.5 98.2615 35.3426 98.4627 35.2266C98.6639 35.1106 98.8888 35.023 99.1374 34.9638C99.386 34.9046 99.6393 34.8596 99.8974 34.8288C100.224 34.791 100.489 34.7602 100.693 34.7365C100.896 34.7105 101.044 34.669 101.137 34.6122C101.229 34.5554 101.275 34.4631 101.275 34.3352V34.3104C101.275 34.0002 101.188 33.7599 101.012 33.5895C100.84 33.419 100.582 33.3338 100.238 33.3338C99.8808 33.3338 99.5991 33.4131 99.3931 33.5717C99.1895 33.728 99.0487 33.902 98.9705 34.0938L97.9727 33.8665C98.091 33.535 98.2638 33.2675 98.4911 33.0639C98.7208 32.858 98.9847 32.7088 99.283 32.6165C99.5813 32.5218 99.895 32.4744 100.224 32.4744C100.442 32.4744 100.673 32.5005 100.917 32.5526C101.163 32.6023 101.392 32.6946 101.605 32.8295C101.821 32.9645 101.997 33.1574 102.135 33.4084C102.272 33.657 102.341 33.9801 102.341 34.3778V38H101.304V37.2543H101.261C101.192 37.3916 101.089 37.5265 100.952 37.6591C100.815 37.7917 100.638 37.9018 100.423 37.9893C100.208 38.0769 99.9495 38.1207 99.6488 38.1207ZM99.8796 37.2685C100.173 37.2685 100.424 37.2105 100.632 37.0945C100.843 36.9785 101.003 36.8269 101.112 36.6399C101.223 36.4505 101.279 36.2481 101.279 36.0327V35.3295C101.241 35.3674 101.167 35.4029 101.059 35.4361C100.952 35.4669 100.83 35.4941 100.693 35.5178C100.556 35.5391 100.422 35.5592 100.292 35.5781C100.161 35.5947 100.052 35.6089 99.9648 35.6207C99.7589 35.6468 99.5707 35.6906 99.4002 35.7521C99.2321 35.8137 99.0972 35.9025 98.9954 36.0185C98.896 36.1321 98.8462 36.2836 98.8462 36.473C98.8462 36.7358 98.9433 36.9347 99.1374 37.0696C99.3316 37.2022 99.579 37.2685 99.8796 37.2685ZM106.052 38.1101C105.524 38.1101 105.07 37.9905 104.689 37.7514C104.31 37.5099 104.019 37.1773 103.815 36.7536C103.612 36.3298 103.51 35.8445 103.51 35.2976C103.51 34.7436 103.614 34.2547 103.822 33.831C104.031 33.4048 104.324 33.0722 104.703 32.8331C105.082 32.594 105.528 32.4744 106.042 32.4744C106.456 32.4744 106.825 32.5514 107.15 32.7053C107.474 32.8568 107.736 33.0698 107.934 33.3445C108.136 33.6191 108.255 33.9399 108.293 34.3068H107.26C107.203 34.0511 107.073 33.831 106.869 33.6463C106.668 33.4616 106.398 33.3693 106.059 33.3693C105.764 33.3693 105.504 33.4474 105.282 33.6037C105.062 33.7576 104.89 33.9777 104.767 34.2642C104.644 34.5483 104.582 34.8845 104.582 35.2727C104.582 35.6705 104.643 36.0137 104.763 36.3026C104.884 36.5914 105.055 36.8151 105.275 36.9737C105.497 37.1323 105.759 37.2116 106.059 37.2116C106.261 37.2116 106.443 37.175 106.606 37.1016C106.772 37.0258 106.911 36.9181 107.022 36.7784C107.135 36.6387 107.215 36.4706 107.26 36.2741H108.293C108.255 36.6269 108.14 36.9418 107.949 37.2188C107.757 37.4957 107.5 37.7135 107.178 37.8722C106.858 38.0308 106.483 38.1101 106.052 38.1101ZM110.405 36.1499L110.398 34.8537H110.583L112.756 32.5455H114.027L111.549 35.1733H111.382L110.405 36.1499ZM109.429 38V30.7273H110.49V38H109.429ZM112.873 38L110.92 35.4077L111.652 34.6655L114.176 38H112.873ZM116.582 38.1207C116.237 38.1207 115.924 38.0568 115.645 37.929C115.366 37.7988 115.144 37.6106 114.981 37.3643C114.82 37.1181 114.739 36.8163 114.739 36.4588C114.739 36.151 114.799 35.8977 114.917 35.6989C115.035 35.5 115.195 35.3426 115.396 35.2266C115.598 35.1106 115.822 35.023 116.071 34.9638C116.32 34.9046 116.573 34.8596 116.831 34.8288C117.158 34.791 117.423 34.7602 117.626 34.7365C117.83 34.7105 117.978 34.669 118.07 34.6122C118.163 34.5554 118.209 34.4631 118.209 34.3352V34.3104C118.209 34.0002 118.121 33.7599 117.946 33.5895C117.773 33.419 117.515 33.3338 117.172 33.3338C116.814 33.3338 116.533 33.4131 116.327 33.5717C116.123 33.728 115.982 33.902 115.904 34.0938L114.906 33.8665C115.025 33.535 115.197 33.2675 115.425 33.0639C115.654 32.858 115.918 32.7088 116.217 32.6165C116.515 32.5218 116.829 32.4744 117.158 32.4744C117.375 32.4744 117.606 32.5005 117.85 32.5526C118.096 32.6023 118.326 32.6946 118.539 32.8295C118.754 32.9645 118.931 33.1574 119.068 33.4084C119.205 33.657 119.274 33.9801 119.274 34.3778V38H118.237V37.2543H118.195C118.126 37.3916 118.023 37.5265 117.886 37.6591C117.748 37.7917 117.572 37.9018 117.357 37.9893C117.141 38.0769 116.883 38.1207 116.582 38.1207ZM116.813 37.2685C117.107 37.2685 117.358 37.2105 117.566 37.0945C117.777 36.9785 117.937 36.8269 118.045 36.6399C118.157 36.4505 118.212 36.2481 118.212 36.0327V35.3295C118.174 35.3674 118.101 35.4029 117.992 35.4361C117.886 35.4669 117.764 35.4941 117.626 35.5178C117.489 35.5391 117.355 35.5592 117.225 35.5781C117.095 35.5947 116.986 35.6089 116.898 35.6207C116.692 35.6468 116.504 35.6906 116.334 35.7521C116.166 35.8137 116.031 35.9025 115.929 36.0185C115.83 36.1321 115.78 36.2836 115.78 36.473C115.78 36.7358 115.877 36.9347 116.071 37.0696C116.265 37.2022 116.513 37.2685 116.813 37.2685ZM122.975 40.1591C122.542 40.1591 122.169 40.1023 121.857 39.9886C121.547 39.875 121.293 39.7247 121.097 39.5376C120.9 39.3506 120.753 39.1458 120.656 38.9233L121.569 38.5469C121.633 38.651 121.718 38.7611 121.825 38.8771C121.934 38.9955 122.08 39.0961 122.265 39.179C122.452 39.2618 122.692 39.3033 122.986 39.3033C123.388 39.3033 123.721 39.205 123.984 39.0085C124.247 38.8144 124.378 38.5043 124.378 38.0781V37.0057H124.311C124.247 37.1217 124.154 37.2507 124.034 37.3928C123.915 37.5348 123.752 37.6579 123.544 37.7621C123.335 37.8662 123.064 37.9183 122.73 37.9183C122.299 37.9183 121.911 37.8177 121.566 37.6165C121.222 37.4129 120.95 37.1134 120.749 36.718C120.55 36.3203 120.45 35.8314 120.45 35.2514C120.45 34.6714 120.549 34.1742 120.745 33.7599C120.944 33.3456 121.216 33.0284 121.562 32.8082C121.908 32.5857 122.299 32.4744 122.737 32.4744C123.076 32.4744 123.349 32.5312 123.558 32.6449C123.766 32.7562 123.928 32.8864 124.044 33.0355C124.163 33.1847 124.254 33.3161 124.318 33.4297H124.396V32.5455H125.436V38.1207C125.436 38.5895 125.327 38.9742 125.11 39.2749C124.892 39.5755 124.597 39.7981 124.225 39.9425C123.856 40.0869 123.439 40.1591 122.975 40.1591ZM122.965 37.0376C123.27 37.0376 123.528 36.9666 123.739 36.8246C123.952 36.6802 124.113 36.4742 124.222 36.2067C124.333 35.9368 124.389 35.6136 124.389 35.2372C124.389 34.8703 124.334 34.5471 124.225 34.2678C124.116 33.9884 123.957 33.7706 123.746 33.6143C123.535 33.4557 123.275 33.3764 122.965 33.3764C122.645 33.3764 122.379 33.4593 122.166 33.625C121.953 33.7884 121.792 34.0109 121.683 34.2926C121.576 34.5743 121.523 34.8892 121.523 35.2372C121.523 35.5947 121.577 35.9084 121.686 36.1783C121.795 36.4482 121.956 36.6589 122.169 36.8104C122.385 36.9619 122.65 37.0376 122.965 37.0376ZM129.211 38.1101C128.674 38.1101 128.211 37.9953 127.823 37.7656C127.437 37.5336 127.138 37.2081 126.928 36.7891C126.719 36.3677 126.615 35.8741 126.615 35.3082C126.615 34.7495 126.719 34.2571 126.928 33.831C127.138 33.4048 127.432 33.0722 127.808 32.8331C128.187 32.594 128.63 32.4744 129.137 32.4744C129.444 32.4744 129.743 32.5253 130.031 32.6271C130.32 32.7289 130.579 32.8887 130.809 33.1065C131.039 33.3243 131.22 33.6072 131.352 33.9553C131.485 34.3009 131.551 34.7211 131.551 35.2159V35.5923H127.215V34.7969H130.511C130.511 34.5175 130.454 34.2701 130.34 34.0547C130.227 33.8369 130.067 33.6652 129.861 33.5398C129.657 33.4143 129.418 33.3516 129.144 33.3516C128.845 33.3516 128.585 33.425 128.362 33.5717C128.142 33.7161 127.972 33.9055 127.851 34.1399C127.733 34.3719 127.673 34.6241 127.673 34.8963V35.5178C127.673 35.8823 127.737 36.1925 127.865 36.4482C127.995 36.7038 128.177 36.8991 128.409 37.0341C128.641 37.1667 128.912 37.233 129.222 37.233C129.423 37.233 129.606 37.2045 129.772 37.1477C129.938 37.0885 130.081 37.0009 130.202 36.8849C130.323 36.7689 130.415 36.6257 130.479 36.4553L131.484 36.6364C131.403 36.9323 131.259 37.1915 131.051 37.4141C130.845 37.6342 130.585 37.8059 130.273 37.929C129.963 38.0497 129.609 38.1101 129.211 38.1101ZM136.817 33.8771L135.854 34.0476C135.814 33.9245 135.75 33.8073 135.663 33.696C135.577 33.5848 135.461 33.4936 135.315 33.4226C135.168 33.3516 134.984 33.3161 134.764 33.3161C134.464 33.3161 134.213 33.3835 134.011 33.5185C133.81 33.651 133.71 33.8227 133.71 34.0334C133.71 34.2157 133.777 34.3625 133.912 34.4737C134.047 34.585 134.265 34.6761 134.565 34.7472L135.432 34.946C135.934 35.062 136.308 35.2408 136.554 35.4822C136.8 35.7237 136.923 36.0374 136.923 36.4233C136.923 36.75 136.829 37.0412 136.639 37.2969C136.452 37.5502 136.191 37.7491 135.854 37.8935C135.521 38.0379 135.134 38.1101 134.693 38.1101C134.082 38.1101 133.584 37.9799 133.198 37.7195C132.812 37.4567 132.576 37.0838 132.488 36.6009L133.514 36.4446C133.578 36.7121 133.71 36.9145 133.908 37.0518C134.107 37.1868 134.366 37.2543 134.686 37.2543C135.034 37.2543 135.312 37.1821 135.521 37.0376C135.729 36.8909 135.833 36.7121 135.833 36.5014C135.833 36.331 135.769 36.1877 135.641 36.0717C135.516 35.9557 135.323 35.8681 135.062 35.8089L134.139 35.6065C133.63 35.4905 133.254 35.3059 133.01 35.0526C132.768 34.7992 132.648 34.4785 132.648 34.0902C132.648 33.7682 132.738 33.4865 132.918 33.245C133.098 33.0036 133.346 32.8153 133.663 32.6804C133.981 32.5431 134.344 32.4744 134.754 32.4744C135.343 32.4744 135.807 32.6023 136.146 32.858C136.484 33.1113 136.708 33.451 136.817 33.8771Z" fill="#575757"/>
<path d="M1.89631 30.7273V38H0.799006V30.7273H1.89631ZM4.47088 34.7614V38H3.40909V32.5455H4.42827V33.4332H4.49574C4.62121 33.1444 4.81771 32.9124 5.08523 32.7372C5.35511 32.562 5.69484 32.4744 6.1044 32.4744C6.47609 32.4744 6.80161 32.5526 7.08097 32.7088C7.36032 32.8627 7.57694 33.0923 7.73082 33.3977C7.88471 33.7031 7.96165 34.0807 7.96165 34.5305V38H6.89986V34.6584C6.89986 34.263 6.79688 33.9541 6.59091 33.7315C6.38494 33.5066 6.10204 33.3942 5.74219 33.3942C5.49598 33.3942 5.27699 33.4474 5.08523 33.554C4.89583 33.6605 4.7455 33.8168 4.63423 34.0227C4.52533 34.2263 4.47088 34.4725 4.47088 34.7614ZM11.9815 32.5455V33.3977H8.89915V32.5455H11.9815ZM9.74432 38V31.9134C9.74432 31.5724 9.81889 31.2895 9.96804 31.0646C10.1172 30.8374 10.3149 30.6681 10.5611 30.5568C10.8073 30.4432 11.0748 30.3864 11.3636 30.3864C11.5767 30.3864 11.759 30.4041 11.9105 30.4396C12.062 30.4728 12.1745 30.5036 12.2479 30.532L11.9993 31.3913C11.9496 31.3771 11.8857 31.3606 11.8075 31.3416C11.7294 31.3203 11.6347 31.3097 11.5234 31.3097C11.2654 31.3097 11.0807 31.3736 10.9695 31.5014C10.8606 31.6293 10.8061 31.8139 10.8061 32.0554V38H9.74432ZM15.1598 38.1101C14.6484 38.1101 14.2022 37.9929 13.821 37.7585C13.4399 37.5241 13.1439 37.1963 12.9332 36.7749C12.7225 36.3535 12.6172 35.861 12.6172 35.2976C12.6172 34.7318 12.7225 34.237 12.9332 33.8132C13.1439 33.3894 13.4399 33.0604 13.821 32.826C14.2022 32.5916 14.6484 32.4744 15.1598 32.4744C15.6712 32.4744 16.1174 32.5916 16.4986 32.826C16.8797 33.0604 17.1757 33.3894 17.3864 33.8132C17.5971 34.237 17.7024 34.7318 17.7024 35.2976C17.7024 35.861 17.5971 36.3535 17.3864 36.7749C17.1757 37.1963 16.8797 37.5241 16.4986 37.7585C16.1174 37.9929 15.6712 38.1101 15.1598 38.1101ZM15.1634 37.2188C15.4948 37.2188 15.7694 37.1312 15.9872 36.956C16.205 36.7808 16.366 36.5476 16.4702 36.2564C16.5767 35.9652 16.63 35.6444 16.63 35.294C16.63 34.946 16.5767 34.6264 16.4702 34.3352C16.366 34.0417 16.205 33.8061 15.9872 33.6286C15.7694 33.451 15.4948 33.3622 15.1634 33.3622C14.8295 33.3622 14.5526 33.451 14.3324 33.6286C14.1146 33.8061 13.9524 34.0417 13.8459 34.3352C13.7417 34.6264 13.6896 34.946 13.6896 35.294C13.6896 35.6444 13.7417 35.9652 13.8459 36.2564C13.9524 36.5476 14.1146 36.7808 14.3324 36.956C14.5526 37.1312 14.8295 37.2188 15.1634 37.2188ZM18.8876 38V32.5455H19.9139V33.4119H19.9707C20.0701 33.1184 20.2453 32.8875 20.4963 32.7195C20.7496 32.549 21.036 32.4638 21.3556 32.4638C21.4219 32.4638 21.5001 32.4661 21.59 32.4709C21.6824 32.4756 21.7546 32.4815 21.8066 32.4886V33.5043C21.764 33.4924 21.6883 33.4794 21.5794 33.4652C21.4705 33.4486 21.3616 33.4403 21.2527 33.4403C21.0017 33.4403 20.778 33.4936 20.5815 33.6001C20.3874 33.7043 20.2335 33.8499 20.1199 34.0369C20.0062 34.2216 19.9494 34.4323 19.9494 34.669V38H18.8876ZM22.7255 38V32.5455H23.7447V33.4332H23.8121C23.9258 33.1326 24.1116 32.8982 24.3697 32.7301C24.6277 32.5597 24.9367 32.4744 25.2965 32.4744C25.6611 32.4744 25.9665 32.5597 26.2127 32.7301C26.4613 32.9006 26.6448 33.1349 26.7631 33.4332H26.82C26.9502 33.142 27.1573 32.91 27.4414 32.7372C27.7255 32.562 28.064 32.4744 28.457 32.4744C28.9518 32.4744 29.3555 32.6295 29.668 32.9396C29.9828 33.2498 30.1403 33.7173 30.1403 34.3423V38H29.0785V34.4418C29.0785 34.0724 28.9779 33.8049 28.7766 33.6392C28.5754 33.4735 28.3351 33.3906 28.0558 33.3906C27.7101 33.3906 27.4414 33.4972 27.2496 33.7102C27.0579 33.9209 26.962 34.192 26.962 34.5234V38H25.9038V34.3743C25.9038 34.0784 25.8114 33.8404 25.6268 33.6605C25.4421 33.4806 25.2018 33.3906 24.9059 33.3906C24.7047 33.3906 24.5188 33.4439 24.3484 33.5504C24.1803 33.6546 24.0442 33.8002 23.94 33.9872C23.8382 34.1742 23.7873 34.3909 23.7873 34.6371V38H22.7255ZM33.1507 38.1207C32.8051 38.1207 32.4926 38.0568 32.2132 37.929C31.9339 37.7988 31.7125 37.6106 31.5492 37.3643C31.3882 37.1181 31.3077 36.8163 31.3077 36.4588C31.3077 36.151 31.3669 35.8977 31.4853 35.6989C31.6036 35.5 31.7634 35.3426 31.9647 35.2266C32.1659 35.1106 32.3908 35.023 32.6394 34.9638C32.888 34.9046 33.1413 34.8596 33.3993 34.8288C33.726 34.791 33.9912 34.7602 34.1948 34.7365C34.3984 34.7105 34.5463 34.669 34.6387 34.6122C34.731 34.5554 34.7772 34.4631 34.7772 34.3352V34.3104C34.7772 34.0002 34.6896 33.7599 34.5144 33.5895C34.3416 33.419 34.0835 33.3338 33.7402 33.3338C33.3828 33.3338 33.101 33.4131 32.8951 33.5717C32.6915 33.728 32.5506 33.902 32.4725 34.0938L31.4746 33.8665C31.593 33.535 31.7658 33.2675 31.9931 33.0639C32.2227 32.858 32.4867 32.7088 32.785 32.6165C33.0833 32.5218 33.397 32.4744 33.726 32.4744C33.9438 32.4744 34.1747 32.5005 34.4185 32.5526C34.6647 32.6023 34.8944 32.6946 35.1074 32.8295C35.3229 32.9645 35.4992 33.1574 35.6365 33.4084C35.7739 33.657 35.8425 33.9801 35.8425 34.3778V38H34.8056V37.2543H34.763C34.6943 37.3916 34.5913 37.5265 34.454 37.6591C34.3167 37.7917 34.1403 37.9018 33.9249 37.9893C33.7095 38.0769 33.4514 38.1207 33.1507 38.1207ZM33.3816 37.2685C33.6751 37.2685 33.9261 37.2105 34.1344 37.0945C34.3451 36.9785 34.5049 36.8269 34.6138 36.6399C34.7251 36.4505 34.7807 36.2481 34.7807 36.0327V35.3295C34.7428 35.3674 34.6694 35.4029 34.5605 35.4361C34.454 35.4669 34.3321 35.4941 34.1948 35.5178C34.0575 35.5391 33.9237 35.5592 33.7935 35.5781C33.6633 35.5947 33.5544 35.6089 33.4668 35.6207C33.2608 35.6468 33.0726 35.6906 32.9022 35.7521C32.7341 35.8137 32.5991 35.9025 32.4973 36.0185C32.3979 36.1321 32.3482 36.2836 32.3482 36.473C32.3482 36.7358 32.4453 36.9347 32.6394 37.0696C32.8335 37.2022 33.0809 37.2685 33.3816 37.2685ZM39.8029 32.5455V33.3977H36.8235V32.5455H39.8029ZM37.6225 31.2386H38.6843V36.3984C38.6843 36.6044 38.7151 36.7595 38.7766 36.8636C38.8382 36.9654 38.9175 37.0353 39.0146 37.0732C39.114 37.1087 39.2217 37.1264 39.3377 37.1264C39.4229 37.1264 39.4975 37.1205 39.5614 37.1087C39.6254 37.0968 39.6751 37.0874 39.7106 37.0803L39.9023 37.9574C39.8408 37.9811 39.7532 38.0047 39.6396 38.0284C39.5259 38.0545 39.3839 38.0687 39.2134 38.071C38.9341 38.0758 38.6737 38.026 38.4322 37.9219C38.1907 37.8177 37.9954 37.6567 37.8462 37.4389C37.6971 37.2211 37.6225 36.9477 37.6225 36.6186V31.2386ZM40.9775 38V32.5455H42.0392V38H40.9775ZM41.5137 31.7038C41.329 31.7038 41.1704 31.6423 41.0378 31.5192C40.9076 31.3937 40.8425 31.2446 40.8425 31.0717C40.8425 30.8965 40.9076 30.7474 41.0378 30.6243C41.1704 30.4988 41.329 30.4361 41.5137 30.4361C41.6983 30.4361 41.8558 30.4988 41.986 30.6243C42.1185 30.7474 42.1848 30.8965 42.1848 31.0717C42.1848 31.2446 42.1185 31.3937 41.986 31.5192C41.8558 31.6423 41.6983 31.7038 41.5137 31.7038ZM45.7653 38.1101C45.2539 38.1101 44.8076 37.9929 44.4265 37.7585C44.0453 37.5241 43.7494 37.1963 43.5387 36.7749C43.328 36.3535 43.2227 35.861 43.2227 35.2976C43.2227 34.7318 43.328 34.237 43.5387 33.8132C43.7494 33.3894 44.0453 33.0604 44.4265 32.826C44.8076 32.5916 45.2539 32.4744 45.7653 32.4744C46.2766 32.4744 46.7229 32.5916 47.104 32.826C47.4852 33.0604 47.7811 33.3894 47.9918 33.8132C48.2025 34.237 48.3079 34.7318 48.3079 35.2976C48.3079 35.861 48.2025 36.3535 47.9918 36.7749C47.7811 37.1963 47.4852 37.5241 47.104 37.7585C46.7229 37.9929 46.2766 38.1101 45.7653 38.1101ZM45.7688 37.2188C46.1003 37.2188 46.3749 37.1312 46.5927 36.956C46.8105 36.7808 46.9715 36.5476 47.0756 36.2564C47.1822 35.9652 47.2354 35.6444 47.2354 35.294C47.2354 34.946 47.1822 34.6264 47.0756 34.3352C46.9715 34.0417 46.8105 33.8061 46.5927 33.6286C46.3749 33.451 46.1003 33.3622 45.7688 33.3622C45.435 33.3622 45.158 33.451 44.9379 33.6286C44.7201 33.8061 44.5579 34.0417 44.4513 34.3352C44.3472 34.6264 44.2951 34.946 44.2951 35.294C44.2951 35.6444 44.3472 35.9652 44.4513 36.2564C44.5579 36.5476 44.7201 36.7808 44.9379 36.956C45.158 37.1312 45.435 37.2188 45.7688 37.2188ZM50.5549 34.7614V38H49.4931V32.5455H50.5123V33.4332H50.5797C50.7052 33.1444 50.9017 32.9124 51.1692 32.7372C51.4391 32.562 51.7788 32.4744 52.1884 32.4744C52.5601 32.4744 52.8856 32.5526 53.165 32.7088C53.4443 32.8627 53.6609 33.0923 53.8148 33.3977C53.9687 33.7031 54.0456 34.0807 54.0456 34.5305V38H52.9838V34.6584C52.9838 34.263 52.8809 33.9541 52.6749 33.7315C52.4689 33.5066 52.186 33.3942 51.8262 33.3942C51.58 33.3942 51.361 33.4474 51.1692 33.554C50.9798 33.6605 50.8295 33.8168 50.7182 34.0227C50.6093 34.2263 50.5549 34.4725 50.5549 34.7614Z" fill="#575757"/>
<path d="M180.799 38V30.7273H183.391C183.957 30.7273 184.426 30.8303 184.798 31.0362C185.169 31.2422 185.447 31.5239 185.632 31.8814C185.817 32.2365 185.909 32.6366 185.909 33.0817C185.909 33.5291 185.816 33.9316 185.629 34.2891C185.444 34.6442 185.165 34.9259 184.79 35.1342C184.419 35.3402 183.951 35.4432 183.388 35.4432H181.605V34.5128H183.288C183.646 34.5128 183.936 34.4512 184.158 34.3281C184.381 34.2027 184.544 34.0322 184.648 33.8168C184.753 33.6013 184.805 33.3563 184.805 33.0817C184.805 32.8071 184.753 32.5632 184.648 32.3501C184.544 32.1371 184.38 31.9702 184.155 31.8494C183.932 31.7287 183.639 31.6683 183.274 31.6683H181.896V38H180.799ZM188.649 38.1207C188.303 38.1207 187.991 38.0568 187.711 37.929C187.432 37.7988 187.211 37.6106 187.047 37.3643C186.886 37.1181 186.806 36.8163 186.806 36.4588C186.806 36.151 186.865 35.8977 186.983 35.6989C187.102 35.5 187.261 35.3426 187.463 35.2266C187.664 35.1106 187.889 35.023 188.137 34.9638C188.386 34.9046 188.639 34.8596 188.897 34.8288C189.224 34.791 189.489 34.7602 189.693 34.7365C189.896 34.7105 190.044 34.669 190.137 34.6122C190.229 34.5554 190.275 34.4631 190.275 34.3352V34.3104C190.275 34.0002 190.188 33.7599 190.012 33.5895C189.84 33.419 189.582 33.3338 189.238 33.3338C188.881 33.3338 188.599 33.4131 188.393 33.5717C188.19 33.728 188.049 33.902 187.971 34.0938L186.973 33.8665C187.091 33.535 187.264 33.2675 187.491 33.0639C187.721 32.858 187.985 32.7088 188.283 32.6165C188.581 32.5218 188.895 32.4744 189.224 32.4744C189.442 32.4744 189.673 32.5005 189.917 32.5526C190.163 32.6023 190.392 32.6946 190.605 32.8295C190.821 32.9645 190.997 33.1574 191.135 33.4084C191.272 33.657 191.341 33.9801 191.341 34.3778V38H190.304V37.2543H190.261C190.192 37.3916 190.089 37.5265 189.952 37.6591C189.815 37.7917 189.638 37.9018 189.423 37.9893C189.208 38.0769 188.949 38.1207 188.649 38.1207ZM188.88 37.2685C189.173 37.2685 189.424 37.2105 189.632 37.0945C189.843 36.9785 190.003 36.8269 190.112 36.6399C190.223 36.4505 190.279 36.2481 190.279 36.0327V35.3295C190.241 35.3674 190.167 35.4029 190.059 35.4361C189.952 35.4669 189.83 35.4941 189.693 35.5178C189.556 35.5391 189.422 35.5592 189.292 35.5781C189.161 35.5947 189.052 35.6089 188.965 35.6207C188.759 35.6468 188.571 35.6906 188.4 35.7521C188.232 35.8137 188.097 35.9025 187.995 36.0185C187.896 36.1321 187.846 36.2836 187.846 36.473C187.846 36.7358 187.943 36.9347 188.137 37.0696C188.332 37.2022 188.579 37.2685 188.88 37.2685ZM193.231 40.0455C193.072 40.0455 192.928 40.0324 192.797 40.0064C192.667 39.9827 192.57 39.9567 192.506 39.9283L192.762 39.0582C192.956 39.1103 193.129 39.1328 193.28 39.1257C193.432 39.1186 193.566 39.0618 193.682 38.9553C193.8 38.8487 193.904 38.6747 193.994 38.4332L194.126 38.071L192.13 32.5455H193.266L194.648 36.7784H194.704L196.086 32.5455H197.226L194.978 38.728C194.874 39.0121 194.741 39.2524 194.58 39.4489C194.419 39.6477 194.227 39.7969 194.005 39.8963C193.782 39.9957 193.524 40.0455 193.231 40.0455ZM198.224 38V32.5455H199.243V33.4332H199.31C199.424 33.1326 199.61 32.8982 199.868 32.7301C200.126 32.5597 200.435 32.4744 200.795 32.4744C201.159 32.4744 201.465 32.5597 201.711 32.7301C201.959 32.9006 202.143 33.1349 202.261 33.4332H202.318C202.448 33.142 202.655 32.91 202.939 32.7372C203.224 32.562 203.562 32.4744 203.955 32.4744C204.45 32.4744 204.854 32.6295 205.166 32.9396C205.481 33.2498 205.638 33.7173 205.638 34.3423V38H204.577V34.4418C204.577 34.0724 204.476 33.8049 204.275 33.6392C204.073 33.4735 203.833 33.3906 203.554 33.3906C203.208 33.3906 202.939 33.4972 202.748 33.7102C202.556 33.9209 202.46 34.192 202.46 34.5234V38H201.402V34.3743C201.402 34.0784 201.309 33.8404 201.125 33.6605C200.94 33.4806 200.7 33.3906 200.404 33.3906C200.203 33.3906 200.017 33.4439 199.846 33.5504C199.678 33.6546 199.542 33.8002 199.438 33.9872C199.336 34.1742 199.285 34.3909 199.285 34.6371V38H198.224ZM209.412 38.1101C208.875 38.1101 208.412 37.9953 208.024 37.7656C207.638 37.5336 207.34 37.2081 207.129 36.7891C206.921 36.3677 206.816 35.8741 206.816 35.3082C206.816 34.7495 206.921 34.2571 207.129 33.831C207.34 33.4048 207.633 33.0722 208.01 32.8331C208.388 32.594 208.831 32.4744 209.338 32.4744C209.645 32.4744 209.944 32.5253 210.233 32.6271C210.521 32.7289 210.781 32.8887 211.01 33.1065C211.24 33.3243 211.421 33.6072 211.554 33.9553C211.686 34.3009 211.752 34.7211 211.752 35.2159V35.5923H207.417V34.7969H210.712C210.712 34.5175 210.655 34.2701 210.542 34.0547C210.428 33.8369 210.268 33.6652 210.062 33.5398C209.859 33.4143 209.619 33.3516 209.345 33.3516C209.047 33.3516 208.786 33.425 208.564 33.5717C208.343 33.7161 208.173 33.9055 208.052 34.1399C207.934 34.3719 207.875 34.6241 207.875 34.8963V35.5178C207.875 35.8823 207.939 36.1925 208.066 36.4482C208.197 36.7038 208.378 36.8991 208.61 37.0341C208.842 37.1667 209.113 37.233 209.423 37.233C209.624 37.233 209.808 37.2045 209.973 37.1477C210.139 37.0885 210.282 37.0009 210.403 36.8849C210.524 36.7689 210.616 36.6257 210.68 36.4553L211.685 36.6364C211.605 36.9323 211.46 37.1915 211.252 37.4141C211.046 37.6342 210.787 37.8059 210.474 37.929C210.164 38.0497 209.81 38.1101 209.412 38.1101ZM213.992 34.7614V38H212.931V32.5455H213.95V33.4332H214.017C214.143 33.1444 214.339 32.9124 214.607 32.7372C214.877 32.562 215.216 32.4744 215.626 32.4744C215.998 32.4744 216.323 32.5526 216.602 32.7088C216.882 32.8627 217.098 33.0923 217.252 33.3977C217.406 33.7031 217.483 34.0807 217.483 34.5305V38H216.421V34.6584C216.421 34.263 216.318 33.9541 216.112 33.7315C215.906 33.5066 215.624 33.3942 215.264 33.3942C215.017 33.3942 214.798 33.4474 214.607 33.554C214.417 33.6605 214.267 33.8168 214.156 34.0227C214.047 34.2263 213.992 34.4725 213.992 34.7614ZM221.453 32.5455V33.3977H218.474V32.5455H221.453ZM219.273 31.2386H220.335V36.3984C220.335 36.6044 220.365 36.7595 220.427 36.8636C220.489 36.9654 220.568 37.0353 220.665 37.0732C220.764 37.1087 220.872 37.1264 220.988 37.1264C221.073 37.1264 221.148 37.1205 221.212 37.1087C221.276 37.0968 221.325 37.0874 221.361 37.0803L221.553 37.9574C221.491 37.9811 221.404 38.0047 221.29 38.0284C221.176 38.0545 221.034 38.0687 220.864 38.071C220.584 38.0758 220.324 38.026 220.083 37.9219C219.841 37.8177 219.646 37.6567 219.497 37.4389C219.347 37.2211 219.273 36.9477 219.273 36.6186V31.2386Z" fill="#575757"/>
</svg>
