<svg width="223" height="41" viewBox="0 0 223 41" fill="none" xmlns="http://www.w3.org/2000/svg">
<circle cx="27" cy="12" r="12" fill="#4CB71A"/>
<path fill-rule="evenodd" clip-rule="evenodd" d="M33.0363 7.7636C33.3878 8.11508 33.3878 8.68492 33.0363 9.0364L25.8363 16.2364C25.4849 16.5879 24.915 16.5879 24.5636 16.2364L20.9636 12.6364C20.6121 12.2849 20.6121 11.7151 20.9636 11.3636C21.315 11.0121 21.8849 11.0121 22.2363 11.3636L25.2 14.3272L31.7636 7.7636C32.115 7.41213 32.6849 7.41213 33.0363 7.7636Z" fill="white"/>
<path d="M1.89631 30.7273V38H0.799006V30.7273H1.89631ZM4.47088 34.7614V38H3.40909V32.5455H4.42827V33.4332H4.49574C4.62121 33.1444 4.81771 32.9124 5.08523 32.7372C5.35511 32.562 5.69484 32.4744 6.1044 32.4744C6.47609 32.4744 6.80161 32.5526 7.08097 32.7088C7.36032 32.8627 7.57694 33.0923 7.73082 33.3977C7.88471 33.7031 7.96165 34.0807 7.96165 34.5305V38H6.89986V34.6584C6.89986 34.263 6.79688 33.9541 6.59091 33.7315C6.38494 33.5066 6.10204 33.3942 5.74219 33.3942C5.49598 33.3942 5.27699 33.4474 5.08523 33.554C4.89583 33.6605 4.7455 33.8168 4.63423 34.0227C4.52533 34.2263 4.47088 34.4725 4.47088 34.7614ZM11.9815 32.5455V33.3977H8.89915V32.5455H11.9815ZM9.74432 38V31.9134C9.74432 31.5724 9.81889 31.2895 9.96804 31.0646C10.1172 30.8374 10.3149 30.6681 10.5611 30.5568C10.8073 30.4432 11.0748 30.3864 11.3636 30.3864C11.5767 30.3864 11.759 30.4041 11.9105 30.4396C12.062 30.4728 12.1745 30.5036 12.2479 30.532L11.9993 31.3913C11.9496 31.3771 11.8857 31.3606 11.8075 31.3416C11.7294 31.3203 11.6347 31.3097 11.5234 31.3097C11.2654 31.3097 11.0807 31.3736 10.9695 31.5014C10.8606 31.6293 10.8061 31.8139 10.8061 32.0554V38H9.74432ZM15.1598 38.1101C14.6484 38.1101 14.2022 37.9929 13.821 37.7585C13.4399 37.5241 13.1439 37.1963 12.9332 36.7749C12.7225 36.3535 12.6172 35.861 12.6172 35.2976C12.6172 34.7318 12.7225 34.237 12.9332 33.8132C13.1439 33.3894 13.4399 33.0604 13.821 32.826C14.2022 32.5916 14.6484 32.4744 15.1598 32.4744C15.6712 32.4744 16.1174 32.5916 16.4986 32.826C16.8797 33.0604 17.1757 33.3894 17.3864 33.8132C17.5971 34.237 17.7024 34.7318 17.7024 35.2976C17.7024 35.861 17.5971 36.3535 17.3864 36.7749C17.1757 37.1963 16.8797 37.5241 16.4986 37.7585C16.1174 37.9929 15.6712 38.1101 15.1598 38.1101ZM15.1634 37.2188C15.4948 37.2188 15.7694 37.1312 15.9872 36.956C16.205 36.7808 16.366 36.5476 16.4702 36.2564C16.5767 35.9652 16.63 35.6444 16.63 35.294C16.63 34.946 16.5767 34.6264 16.4702 34.3352C16.366 34.0417 16.205 33.8061 15.9872 33.6286C15.7694 33.451 15.4948 33.3622 15.1634 33.3622C14.8295 33.3622 14.5526 33.451 14.3324 33.6286C14.1146 33.8061 13.9524 34.0417 13.8459 34.3352C13.7417 34.6264 13.6896 34.946 13.6896 35.294C13.6896 35.6444 13.7417 35.9652 13.8459 36.2564C13.9524 36.5476 14.1146 36.7808 14.3324 36.956C14.5526 37.1312 14.8295 37.2188 15.1634 37.2188ZM18.8876 38V32.5455H19.9139V33.4119H19.9707C20.0701 33.1184 20.2453 32.8875 20.4963 32.7195C20.7496 32.549 21.036 32.4638 21.3556 32.4638C21.4219 32.4638 21.5001 32.4661 21.59 32.4709C21.6824 32.4756 21.7546 32.4815 21.8066 32.4886V33.5043C21.764 33.4924 21.6883 33.4794 21.5794 33.4652C21.4705 33.4486 21.3616 33.4403 21.2527 33.4403C21.0017 33.4403 20.778 33.4936 20.5815 33.6001C20.3874 33.7043 20.2335 33.8499 20.1199 34.0369C20.0062 34.2216 19.9494 34.4323 19.9494 34.669V38H18.8876ZM22.7255 38V32.5455H23.7447V33.4332H23.8121C23.9258 33.1326 24.1116 32.8982 24.3697 32.7301C24.6277 32.5597 24.9367 32.4744 25.2965 32.4744C25.6611 32.4744 25.9665 32.5597 26.2127 32.7301C26.4613 32.9006 26.6448 33.1349 26.7631 33.4332H26.82C26.9502 33.142 27.1573 32.91 27.4414 32.7372C27.7255 32.562 28.064 32.4744 28.457 32.4744C28.9518 32.4744 29.3555 32.6295 29.668 32.9396C29.9828 33.2498 30.1403 33.7173 30.1403 34.3423V38H29.0785V34.4418C29.0785 34.0724 28.9779 33.8049 28.7766 33.6392C28.5754 33.4735 28.3351 33.3906 28.0558 33.3906C27.7101 33.3906 27.4414 33.4972 27.2496 33.7102C27.0579 33.9209 26.962 34.192 26.962 34.5234V38H25.9038V34.3743C25.9038 34.0784 25.8114 33.8404 25.6268 33.6605C25.4421 33.4806 25.2018 33.3906 24.9059 33.3906C24.7047 33.3906 24.5188 33.4439 24.3484 33.5504C24.1803 33.6546 24.0442 33.8002 23.94 33.9872C23.8382 34.1742 23.7873 34.3909 23.7873 34.6371V38H22.7255ZM33.1507 38.1207C32.8051 38.1207 32.4926 38.0568 32.2132 37.929C31.9339 37.7988 31.7125 37.6106 31.5492 37.3643C31.3882 37.1181 31.3077 36.8163 31.3077 36.4588C31.3077 36.151 31.3669 35.8977 31.4853 35.6989C31.6036 35.5 31.7634 35.3426 31.9647 35.2266C32.1659 35.1106 32.3908 35.023 32.6394 34.9638C32.888 34.9046 33.1413 34.8596 33.3993 34.8288C33.726 34.791 33.9912 34.7602 34.1948 34.7365C34.3984 34.7105 34.5463 34.669 34.6387 34.6122C34.731 34.5554 34.7772 34.4631 34.7772 34.3352V34.3104C34.7772 34.0002 34.6896 33.7599 34.5144 33.5895C34.3416 33.419 34.0835 33.3338 33.7402 33.3338C33.3828 33.3338 33.101 33.4131 32.8951 33.5717C32.6915 33.728 32.5506 33.902 32.4725 34.0938L31.4746 33.8665C31.593 33.535 31.7658 33.2675 31.9931 33.0639C32.2227 32.858 32.4867 32.7088 32.785 32.6165C33.0833 32.5218 33.397 32.4744 33.726 32.4744C33.9438 32.4744 34.1747 32.5005 34.4185 32.5526C34.6647 32.6023 34.8944 32.6946 35.1074 32.8295C35.3229 32.9645 35.4992 33.1574 35.6365 33.4084C35.7739 33.657 35.8425 33.9801 35.8425 34.3778V38H34.8056V37.2543H34.763C34.6943 37.3916 34.5913 37.5265 34.454 37.6591C34.3167 37.7917 34.1403 37.9018 33.9249 37.9893C33.7095 38.0769 33.4514 38.1207 33.1507 38.1207ZM33.3816 37.2685C33.6751 37.2685 33.9261 37.2105 34.1344 37.0945C34.3451 36.9785 34.5049 36.8269 34.6138 36.6399C34.7251 36.4505 34.7807 36.2481 34.7807 36.0327V35.3295C34.7428 35.3674 34.6694 35.4029 34.5605 35.4361C34.454 35.4669 34.3321 35.4941 34.1948 35.5178C34.0575 35.5391 33.9237 35.5592 33.7935 35.5781C33.6633 35.5947 33.5544 35.6089 33.4668 35.6207C33.2608 35.6468 33.0726 35.6906 32.9022 35.7521C32.7341 35.8137 32.5991 35.9025 32.4973 36.0185C32.3979 36.1321 32.3482 36.2836 32.3482 36.473C32.3482 36.7358 32.4453 36.9347 32.6394 37.0696C32.8335 37.2022 33.0809 37.2685 33.3816 37.2685ZM39.8029 32.5455V33.3977H36.8235V32.5455H39.8029ZM37.6225 31.2386H38.6843V36.3984C38.6843 36.6044 38.7151 36.7595 38.7766 36.8636C38.8382 36.9654 38.9175 37.0353 39.0146 37.0732C39.114 37.1087 39.2217 37.1264 39.3377 37.1264C39.4229 37.1264 39.4975 37.1205 39.5614 37.1087C39.6254 37.0968 39.6751 37.0874 39.7106 37.0803L39.9023 37.9574C39.8408 37.9811 39.7532 38.0047 39.6396 38.0284C39.5259 38.0545 39.3839 38.0687 39.2134 38.071C38.9341 38.0758 38.6737 38.026 38.4322 37.9219C38.1907 37.8177 37.9954 37.6567 37.8462 37.4389C37.6971 37.2211 37.6225 36.9477 37.6225 36.6186V31.2386ZM40.9775 38V32.5455H42.0392V38H40.9775ZM41.5137 31.7038C41.329 31.7038 41.1704 31.6423 41.0378 31.5192C40.9076 31.3937 40.8425 31.2446 40.8425 31.0717C40.8425 30.8965 40.9076 30.7474 41.0378 30.6243C41.1704 30.4988 41.329 30.4361 41.5137 30.4361C41.6983 30.4361 41.8558 30.4988 41.986 30.6243C42.1185 30.7474 42.1848 30.8965 42.1848 31.0717C42.1848 31.2446 42.1185 31.3937 41.986 31.5192C41.8558 31.6423 41.6983 31.7038 41.5137 31.7038ZM45.7653 38.1101C45.2539 38.1101 44.8076 37.9929 44.4265 37.7585C44.0453 37.5241 43.7494 37.1963 43.5387 36.7749C43.328 36.3535 43.2227 35.861 43.2227 35.2976C43.2227 34.7318 43.328 34.237 43.5387 33.8132C43.7494 33.3894 44.0453 33.0604 44.4265 32.826C44.8076 32.5916 45.2539 32.4744 45.7653 32.4744C46.2766 32.4744 46.7229 32.5916 47.104 32.826C47.4852 33.0604 47.7811 33.3894 47.9918 33.8132C48.2025 34.237 48.3079 34.7318 48.3079 35.2976C48.3079 35.861 48.2025 36.3535 47.9918 36.7749C47.7811 37.1963 47.4852 37.5241 47.104 37.7585C46.7229 37.9929 46.2766 38.1101 45.7653 38.1101ZM45.7688 37.2188C46.1003 37.2188 46.3749 37.1312 46.5927 36.956C46.8105 36.7808 46.9715 36.5476 47.0756 36.2564C47.1822 35.9652 47.2354 35.6444 47.2354 35.294C47.2354 34.946 47.1822 34.6264 47.0756 34.3352C46.9715 34.0417 46.8105 33.8061 46.5927 33.6286C46.3749 33.451 46.1003 33.3622 45.7688 33.3622C45.435 33.3622 45.158 33.451 44.9379 33.6286C44.7201 33.8061 44.5579 34.0417 44.4513 34.3352C44.3472 34.6264 44.2951 34.946 44.2951 35.294C44.2951 35.6444 44.3472 35.9652 44.4513 36.2564C44.5579 36.5476 44.7201 36.7808 44.9379 36.956C45.158 37.1312 45.435 37.2188 45.7688 37.2188ZM50.5549 34.7614V38H49.4931V32.5455H50.5123V33.4332H50.5797C50.7052 33.1444 50.9017 32.9124 51.1692 32.7372C51.4391 32.562 51.7788 32.4744 52.1884 32.4744C52.5601 32.4744 52.8856 32.5526 53.165 32.7088C53.4443 32.8627 53.6609 33.0923 53.8148 33.3977C53.9687 33.7031 54.0456 34.0807 54.0456 34.5305V38H52.9838V34.6584C52.9838 34.263 52.8809 33.9541 52.6749 33.7315C52.4689 33.5066 52.186 33.3942 51.8262 33.3942C51.58 33.3942 51.361 33.4474 51.1692 33.554C50.9798 33.6605 50.8295 33.8168 50.7182 34.0227C50.6093 34.2263 50.5549 34.4725 50.5549 34.7614Z" fill="#575757"/>
<line x1="134" y1="11" x2="182" y2="11" stroke="#DDDDDD" stroke-width="2"/>
<circle cx="202" cy="12" r="11" fill="white" stroke="#DDDDDD" stroke-width="2"/>
<circle cx="115" cy="12" r="11" fill="white" stroke="#CE2C43" stroke-width="2"/>
<path d="M201.852 16.1193C201.29 16.1193 200.788 16.0227 200.348 15.8295C199.911 15.6364 199.563 15.3679 199.304 15.0241C199.048 14.6776 198.909 14.2756 198.886 13.8182H199.96C199.983 14.0994 200.08 14.3423 200.25 14.5469C200.42 14.7486 200.643 14.9048 200.919 15.0156C201.195 15.1264 201.5 15.1818 201.835 15.1818C202.21 15.1818 202.543 15.1165 202.832 14.9858C203.122 14.8551 203.349 14.6733 203.514 14.4403C203.679 14.2074 203.761 13.9375 203.761 13.6307C203.761 13.3097 203.682 13.027 203.523 12.7827C203.364 12.5355 203.131 12.3423 202.824 12.2031C202.517 12.0639 202.142 11.9943 201.699 11.9943H201V11.0568H201.699C202.045 11.0568 202.349 10.9943 202.611 10.8693C202.875 10.7443 203.081 10.5682 203.229 10.3409C203.379 10.1136 203.455 9.84659 203.455 9.53977C203.455 9.24432 203.389 8.98722 203.259 8.76847C203.128 8.54972 202.943 8.37926 202.705 8.2571C202.469 8.13494 202.19 8.07386 201.869 8.07386C201.568 8.07386 201.284 8.12926 201.017 8.24006C200.753 8.34801 200.537 8.50568 200.369 8.71307C200.202 8.91761 200.111 9.16477 200.097 9.45455H199.074C199.091 8.99716 199.229 8.59659 199.487 8.25284C199.746 7.90625 200.084 7.63636 200.501 7.44318C200.922 7.25 201.384 7.15341 201.886 7.15341C202.426 7.15341 202.889 7.26278 203.276 7.48153C203.662 7.69744 203.959 7.98295 204.166 8.33807C204.374 8.69318 204.477 9.0767 204.477 9.48864C204.477 9.98011 204.348 10.3991 204.089 10.7457C203.834 11.0923 203.486 11.3324 203.045 11.4659V11.5341C203.597 11.625 204.027 11.8594 204.337 12.2372C204.646 12.6122 204.801 13.0767 204.801 13.6307C204.801 14.1051 204.672 14.5312 204.413 14.9091C204.158 15.2841 203.808 15.5795 203.365 15.7955C202.922 16.0114 202.418 16.1193 201.852 16.1193Z" fill="#575757"/>
<line x1="47" y1="11" x2="95" y2="11" stroke="#4CB71A" stroke-width="2"/>
<path d="M111.903 16V15.233L114.784 12.0795C115.122 11.7102 115.401 11.3892 115.619 11.1165C115.838 10.8409 116 10.5824 116.105 10.3409C116.213 10.0966 116.267 9.84091 116.267 9.57386C116.267 9.26705 116.193 9.00142 116.045 8.77699C115.901 8.55256 115.702 8.37926 115.449 8.2571C115.196 8.13494 114.912 8.07386 114.597 8.07386C114.261 8.07386 113.969 8.14347 113.719 8.28267C113.472 8.41903 113.28 8.6108 113.143 8.85795C113.01 9.10511 112.943 9.39489 112.943 9.72727H111.938C111.938 9.21591 112.055 8.76705 112.291 8.38068C112.527 7.99432 112.848 7.69318 113.254 7.47727C113.663 7.26136 114.122 7.15341 114.631 7.15341C115.142 7.15341 115.595 7.26136 115.99 7.47727C116.385 7.69318 116.695 7.98437 116.919 8.35085C117.143 8.71733 117.256 9.125 117.256 9.57386C117.256 9.89489 117.197 10.2088 117.081 10.5156C116.967 10.8196 116.768 11.1591 116.484 11.5341C116.203 11.9062 115.812 12.3608 115.312 12.8977L113.352 14.9943V15.0625H117.409V16H111.903Z" fill="#821923"/>
<path d="M92.799 38V30.7273H95.3913C95.9571 30.7273 96.4259 30.8303 96.7976 31.0362C97.1693 31.2422 97.4474 31.5239 97.6321 31.8814C97.8168 32.2365 97.9091 32.6366 97.9091 33.0817C97.9091 33.5291 97.8156 33.9316 97.6286 34.2891C97.4439 34.6442 97.1645 34.9259 96.7905 35.1342C96.4188 35.3402 95.9512 35.4432 95.3878 35.4432H93.6051V34.5128H95.2884C95.6458 34.5128 95.9358 34.4512 96.1584 34.3281C96.3809 34.2027 96.5443 34.0322 96.6484 33.8168C96.7526 33.6013 96.8047 33.3563 96.8047 33.0817C96.8047 32.8071 96.7526 32.5632 96.6484 32.3501C96.5443 32.1371 96.3797 31.9702 96.1548 31.8494C95.9323 31.7287 95.6387 31.6683 95.2741 31.6683H93.8963V38H92.799ZM100.649 38.1207C100.303 38.1207 99.9906 38.0568 99.7113 37.929C99.4319 37.7988 99.2106 37.6106 99.0472 37.3643C98.8862 37.1181 98.8058 36.8163 98.8058 36.4588C98.8058 36.151 98.8649 35.8977 98.9833 35.6989C99.1017 35.5 99.2615 35.3426 99.4627 35.2266C99.6639 35.1106 99.8888 35.023 100.137 34.9638C100.386 34.9046 100.639 34.8596 100.897 34.8288C101.224 34.791 101.489 34.7602 101.693 34.7365C101.896 34.7105 102.044 34.669 102.137 34.6122C102.229 34.5554 102.275 34.4631 102.275 34.3352V34.3104C102.275 34.0002 102.188 33.7599 102.012 33.5895C101.84 33.419 101.582 33.3338 101.238 33.3338C100.881 33.3338 100.599 33.4131 100.393 33.5717C100.19 33.728 100.049 33.902 99.9705 34.0938L98.9727 33.8665C99.091 33.535 99.2638 33.2675 99.4911 33.0639C99.7208 32.858 99.9847 32.7088 100.283 32.6165C100.581 32.5218 100.895 32.4744 101.224 32.4744C101.442 32.4744 101.673 32.5005 101.917 32.5526C102.163 32.6023 102.392 32.6946 102.605 32.8295C102.821 32.9645 102.997 33.1574 103.135 33.4084C103.272 33.657 103.341 33.9801 103.341 34.3778V38H102.304V37.2543H102.261C102.192 37.3916 102.089 37.5265 101.952 37.6591C101.815 37.7917 101.638 37.9018 101.423 37.9893C101.208 38.0769 100.949 38.1207 100.649 38.1207ZM100.88 37.2685C101.173 37.2685 101.424 37.2105 101.632 37.0945C101.843 36.9785 102.003 36.8269 102.112 36.6399C102.223 36.4505 102.279 36.2481 102.279 36.0327V35.3295C102.241 35.3674 102.167 35.4029 102.059 35.4361C101.952 35.4669 101.83 35.4941 101.693 35.5178C101.556 35.5391 101.422 35.5592 101.292 35.5781C101.161 35.5947 101.052 35.6089 100.965 35.6207C100.759 35.6468 100.571 35.6906 100.4 35.7521C100.232 35.8137 100.097 35.9025 99.9954 36.0185C99.896 36.1321 99.8462 36.2836 99.8462 36.473C99.8462 36.7358 99.9433 36.9347 100.137 37.0696C100.332 37.2022 100.579 37.2685 100.88 37.2685ZM107.052 38.1101C106.524 38.1101 106.07 37.9905 105.689 37.7514C105.31 37.5099 105.019 37.1773 104.815 36.7536C104.612 36.3298 104.51 35.8445 104.51 35.2976C104.51 34.7436 104.614 34.2547 104.822 33.831C105.031 33.4048 105.324 33.0722 105.703 32.8331C106.082 32.594 106.528 32.4744 107.042 32.4744C107.456 32.4744 107.825 32.5514 108.15 32.7053C108.474 32.8568 108.736 33.0698 108.934 33.3445C109.136 33.6191 109.255 33.9399 109.293 34.3068H108.26C108.203 34.0511 108.073 33.831 107.869 33.6463C107.668 33.4616 107.398 33.3693 107.059 33.3693C106.764 33.3693 106.504 33.4474 106.282 33.6037C106.062 33.7576 105.89 33.9777 105.767 34.2642C105.644 34.5483 105.582 34.8845 105.582 35.2727C105.582 35.6705 105.643 36.0137 105.763 36.3026C105.884 36.5914 106.055 36.8151 106.275 36.9737C106.497 37.1323 106.759 37.2116 107.059 37.2116C107.261 37.2116 107.443 37.175 107.606 37.1016C107.772 37.0258 107.911 36.9181 108.022 36.7784C108.135 36.6387 108.215 36.4706 108.26 36.2741H109.293C109.255 36.6269 109.14 36.9418 108.949 37.2188C108.757 37.4957 108.5 37.7135 108.178 37.8722C107.858 38.0308 107.483 38.1101 107.052 38.1101ZM111.405 36.1499L111.398 34.8537H111.583L113.756 32.5455H115.027L112.549 35.1733H112.382L111.405 36.1499ZM110.429 38V30.7273H111.49V38H110.429ZM113.873 38L111.92 35.4077L112.652 34.6655L115.176 38H113.873ZM117.582 38.1207C117.237 38.1207 116.924 38.0568 116.645 37.929C116.366 37.7988 116.144 37.6106 115.981 37.3643C115.82 37.1181 115.739 36.8163 115.739 36.4588C115.739 36.151 115.799 35.8977 115.917 35.6989C116.035 35.5 116.195 35.3426 116.396 35.2266C116.598 35.1106 116.822 35.023 117.071 34.9638C117.32 34.9046 117.573 34.8596 117.831 34.8288C118.158 34.791 118.423 34.7602 118.626 34.7365C118.83 34.7105 118.978 34.669 119.07 34.6122C119.163 34.5554 119.209 34.4631 119.209 34.3352V34.3104C119.209 34.0002 119.121 33.7599 118.946 33.5895C118.773 33.419 118.515 33.3338 118.172 33.3338C117.814 33.3338 117.533 33.4131 117.327 33.5717C117.123 33.728 116.982 33.902 116.904 34.0938L115.906 33.8665C116.025 33.535 116.197 33.2675 116.425 33.0639C116.654 32.858 116.918 32.7088 117.217 32.6165C117.515 32.5218 117.829 32.4744 118.158 32.4744C118.375 32.4744 118.606 32.5005 118.85 32.5526C119.096 32.6023 119.326 32.6946 119.539 32.8295C119.754 32.9645 119.931 33.1574 120.068 33.4084C120.205 33.657 120.274 33.9801 120.274 34.3778V38H119.237V37.2543H119.195C119.126 37.3916 119.023 37.5265 118.886 37.6591C118.748 37.7917 118.572 37.9018 118.357 37.9893C118.141 38.0769 117.883 38.1207 117.582 38.1207ZM117.813 37.2685C118.107 37.2685 118.358 37.2105 118.566 37.0945C118.777 36.9785 118.937 36.8269 119.045 36.6399C119.157 36.4505 119.212 36.2481 119.212 36.0327V35.3295C119.174 35.3674 119.101 35.4029 118.992 35.4361C118.886 35.4669 118.764 35.4941 118.626 35.5178C118.489 35.5391 118.355 35.5592 118.225 35.5781C118.095 35.5947 117.986 35.6089 117.898 35.6207C117.692 35.6468 117.504 35.6906 117.334 35.7521C117.166 35.8137 117.031 35.9025 116.929 36.0185C116.83 36.1321 116.78 36.2836 116.78 36.473C116.78 36.7358 116.877 36.9347 117.071 37.0696C117.265 37.2022 117.513 37.2685 117.813 37.2685ZM123.975 40.1591C123.542 40.1591 123.169 40.1023 122.857 39.9886C122.547 39.875 122.293 39.7247 122.097 39.5376C121.9 39.3506 121.753 39.1458 121.656 38.9233L122.569 38.5469C122.633 38.651 122.718 38.7611 122.825 38.8771C122.934 38.9955 123.08 39.0961 123.265 39.179C123.452 39.2618 123.692 39.3033 123.986 39.3033C124.388 39.3033 124.721 39.205 124.984 39.0085C125.247 38.8144 125.378 38.5043 125.378 38.0781V37.0057H125.311C125.247 37.1217 125.154 37.2507 125.034 37.3928C124.915 37.5348 124.752 37.6579 124.544 37.7621C124.335 37.8662 124.064 37.9183 123.73 37.9183C123.299 37.9183 122.911 37.8177 122.566 37.6165C122.222 37.4129 121.95 37.1134 121.749 36.718C121.55 36.3203 121.45 35.8314 121.45 35.2514C121.45 34.6714 121.549 34.1742 121.745 33.7599C121.944 33.3456 122.216 33.0284 122.562 32.8082C122.908 32.5857 123.299 32.4744 123.737 32.4744C124.076 32.4744 124.349 32.5312 124.558 32.6449C124.766 32.7562 124.928 32.8864 125.044 33.0355C125.163 33.1847 125.254 33.3161 125.318 33.4297H125.396V32.5455H126.436V38.1207C126.436 38.5895 126.327 38.9742 126.11 39.2749C125.892 39.5755 125.597 39.7981 125.225 39.9425C124.856 40.0869 124.439 40.1591 123.975 40.1591ZM123.965 37.0376C124.27 37.0376 124.528 36.9666 124.739 36.8246C124.952 36.6802 125.113 36.4742 125.222 36.2067C125.333 35.9368 125.389 35.6136 125.389 35.2372C125.389 34.8703 125.334 34.5471 125.225 34.2678C125.116 33.9884 124.957 33.7706 124.746 33.6143C124.535 33.4557 124.275 33.3764 123.965 33.3764C123.645 33.3764 123.379 33.4593 123.166 33.625C122.953 33.7884 122.792 34.0109 122.683 34.2926C122.576 34.5743 122.523 34.8892 122.523 35.2372C122.523 35.5947 122.577 35.9084 122.686 36.1783C122.795 36.4482 122.956 36.6589 123.169 36.8104C123.385 36.9619 123.65 37.0376 123.965 37.0376ZM130.211 38.1101C129.674 38.1101 129.211 37.9953 128.823 37.7656C128.437 37.5336 128.138 37.2081 127.928 36.7891C127.719 36.3677 127.615 35.8741 127.615 35.3082C127.615 34.7495 127.719 34.2571 127.928 33.831C128.138 33.4048 128.432 33.0722 128.808 32.8331C129.187 32.594 129.63 32.4744 130.137 32.4744C130.444 32.4744 130.743 32.5253 131.031 32.6271C131.32 32.7289 131.579 32.8887 131.809 33.1065C132.039 33.3243 132.22 33.6072 132.352 33.9553C132.485 34.3009 132.551 34.7211 132.551 35.2159V35.5923H128.215V34.7969H131.511C131.511 34.5175 131.454 34.2701 131.34 34.0547C131.227 33.8369 131.067 33.6652 130.861 33.5398C130.657 33.4143 130.418 33.3516 130.144 33.3516C129.845 33.3516 129.585 33.425 129.362 33.5717C129.142 33.7161 128.972 33.9055 128.851 34.1399C128.733 34.3719 128.673 34.6241 128.673 34.8963V35.5178C128.673 35.8823 128.737 36.1925 128.865 36.4482C128.995 36.7038 129.177 36.8991 129.409 37.0341C129.641 37.1667 129.912 37.233 130.222 37.233C130.423 37.233 130.606 37.2045 130.772 37.1477C130.938 37.0885 131.081 37.0009 131.202 36.8849C131.323 36.7689 131.415 36.6257 131.479 36.4553L132.484 36.6364C132.403 36.9323 132.259 37.1915 132.051 37.4141C131.845 37.6342 131.585 37.8059 131.273 37.929C130.963 38.0497 130.609 38.1101 130.211 38.1101ZM137.817 33.8771L136.854 34.0476C136.814 33.9245 136.75 33.8073 136.663 33.696C136.577 33.5848 136.461 33.4936 136.315 33.4226C136.168 33.3516 135.984 33.3161 135.764 33.3161C135.464 33.3161 135.213 33.3835 135.011 33.5185C134.81 33.651 134.71 33.8227 134.71 34.0334C134.71 34.2157 134.777 34.3625 134.912 34.4737C135.047 34.585 135.265 34.6761 135.565 34.7472L136.432 34.946C136.934 35.062 137.308 35.2408 137.554 35.4822C137.8 35.7237 137.923 36.0374 137.923 36.4233C137.923 36.75 137.829 37.0412 137.639 37.2969C137.452 37.5502 137.191 37.7491 136.854 37.8935C136.521 38.0379 136.134 38.1101 135.693 38.1101C135.082 38.1101 134.584 37.9799 134.198 37.7195C133.812 37.4567 133.576 37.0838 133.488 36.6009L134.514 36.4446C134.578 36.7121 134.71 36.9145 134.908 37.0518C135.107 37.1868 135.366 37.2543 135.686 37.2543C136.034 37.2543 136.312 37.1821 136.521 37.0376C136.729 36.8909 136.833 36.7121 136.833 36.5014C136.833 36.331 136.769 36.1877 136.641 36.0717C136.516 35.9557 136.323 35.8681 136.062 35.8089L135.139 35.6065C134.63 35.4905 134.254 35.3059 134.01 35.0526C133.768 34.7992 133.648 34.4785 133.648 34.0902C133.648 33.7682 133.738 33.4865 133.918 33.245C134.098 33.0036 134.346 32.8153 134.663 32.6804C134.981 32.5431 135.344 32.4744 135.754 32.4744C136.343 32.4744 136.807 32.6023 137.146 32.858C137.484 33.1113 137.708 33.451 137.817 33.8771Z" fill="#575757"/>
<path d="M181.799 38V30.7273H184.391C184.957 30.7273 185.426 30.8303 185.798 31.0362C186.169 31.2422 186.447 31.5239 186.632 31.8814C186.817 32.2365 186.909 32.6366 186.909 33.0817C186.909 33.5291 186.816 33.9316 186.629 34.2891C186.444 34.6442 186.165 34.9259 185.79 35.1342C185.419 35.3402 184.951 35.4432 184.388 35.4432H182.605V34.5128H184.288C184.646 34.5128 184.936 34.4512 185.158 34.3281C185.381 34.2027 185.544 34.0322 185.648 33.8168C185.753 33.6013 185.805 33.3563 185.805 33.0817C185.805 32.8071 185.753 32.5632 185.648 32.3501C185.544 32.1371 185.38 31.9702 185.155 31.8494C184.932 31.7287 184.639 31.6683 184.274 31.6683H182.896V38H181.799ZM189.649 38.1207C189.303 38.1207 188.991 38.0568 188.711 37.929C188.432 37.7988 188.211 37.6106 188.047 37.3643C187.886 37.1181 187.806 36.8163 187.806 36.4588C187.806 36.151 187.865 35.8977 187.983 35.6989C188.102 35.5 188.261 35.3426 188.463 35.2266C188.664 35.1106 188.889 35.023 189.137 34.9638C189.386 34.9046 189.639 34.8596 189.897 34.8288C190.224 34.791 190.489 34.7602 190.693 34.7365C190.896 34.7105 191.044 34.669 191.137 34.6122C191.229 34.5554 191.275 34.4631 191.275 34.3352V34.3104C191.275 34.0002 191.188 33.7599 191.012 33.5895C190.84 33.419 190.582 33.3338 190.238 33.3338C189.881 33.3338 189.599 33.4131 189.393 33.5717C189.19 33.728 189.049 33.902 188.971 34.0938L187.973 33.8665C188.091 33.535 188.264 33.2675 188.491 33.0639C188.721 32.858 188.985 32.7088 189.283 32.6165C189.581 32.5218 189.895 32.4744 190.224 32.4744C190.442 32.4744 190.673 32.5005 190.917 32.5526C191.163 32.6023 191.392 32.6946 191.605 32.8295C191.821 32.9645 191.997 33.1574 192.135 33.4084C192.272 33.657 192.341 33.9801 192.341 34.3778V38H191.304V37.2543H191.261C191.192 37.3916 191.089 37.5265 190.952 37.6591C190.815 37.7917 190.638 37.9018 190.423 37.9893C190.208 38.0769 189.949 38.1207 189.649 38.1207ZM189.88 37.2685C190.173 37.2685 190.424 37.2105 190.632 37.0945C190.843 36.9785 191.003 36.8269 191.112 36.6399C191.223 36.4505 191.279 36.2481 191.279 36.0327V35.3295C191.241 35.3674 191.167 35.4029 191.059 35.4361C190.952 35.4669 190.83 35.4941 190.693 35.5178C190.556 35.5391 190.422 35.5592 190.292 35.5781C190.161 35.5947 190.052 35.6089 189.965 35.6207C189.759 35.6468 189.571 35.6906 189.4 35.7521C189.232 35.8137 189.097 35.9025 188.995 36.0185C188.896 36.1321 188.846 36.2836 188.846 36.473C188.846 36.7358 188.943 36.9347 189.137 37.0696C189.332 37.2022 189.579 37.2685 189.88 37.2685ZM194.231 40.0455C194.072 40.0455 193.928 40.0324 193.797 40.0064C193.667 39.9827 193.57 39.9567 193.506 39.9283L193.762 39.0582C193.956 39.1103 194.129 39.1328 194.28 39.1257C194.432 39.1186 194.566 39.0618 194.682 38.9553C194.8 38.8487 194.904 38.6747 194.994 38.4332L195.126 38.071L193.13 32.5455H194.266L195.648 36.7784H195.704L197.086 32.5455H198.226L195.978 38.728C195.874 39.0121 195.741 39.2524 195.58 39.4489C195.419 39.6477 195.227 39.7969 195.005 39.8963C194.782 39.9957 194.524 40.0455 194.231 40.0455ZM199.224 38V32.5455H200.243V33.4332H200.31C200.424 33.1326 200.61 32.8982 200.868 32.7301C201.126 32.5597 201.435 32.4744 201.795 32.4744C202.159 32.4744 202.465 32.5597 202.711 32.7301C202.959 32.9006 203.143 33.1349 203.261 33.4332H203.318C203.448 33.142 203.655 32.91 203.939 32.7372C204.224 32.562 204.562 32.4744 204.955 32.4744C205.45 32.4744 205.854 32.6295 206.166 32.9396C206.481 33.2498 206.638 33.7173 206.638 34.3423V38H205.577V34.4418C205.577 34.0724 205.476 33.8049 205.275 33.6392C205.073 33.4735 204.833 33.3906 204.554 33.3906C204.208 33.3906 203.939 33.4972 203.748 33.7102C203.556 33.9209 203.46 34.192 203.46 34.5234V38H202.402V34.3743C202.402 34.0784 202.309 33.8404 202.125 33.6605C201.94 33.4806 201.7 33.3906 201.404 33.3906C201.203 33.3906 201.017 33.4439 200.846 33.5504C200.678 33.6546 200.542 33.8002 200.438 33.9872C200.336 34.1742 200.285 34.3909 200.285 34.6371V38H199.224ZM210.412 38.1101C209.875 38.1101 209.412 37.9953 209.024 37.7656C208.638 37.5336 208.34 37.2081 208.129 36.7891C207.921 36.3677 207.816 35.8741 207.816 35.3082C207.816 34.7495 207.921 34.2571 208.129 33.831C208.34 33.4048 208.633 33.0722 209.01 32.8331C209.388 32.594 209.831 32.4744 210.338 32.4744C210.645 32.4744 210.944 32.5253 211.233 32.6271C211.521 32.7289 211.781 32.8887 212.01 33.1065C212.24 33.3243 212.421 33.6072 212.554 33.9553C212.686 34.3009 212.752 34.7211 212.752 35.2159V35.5923H208.417V34.7969H211.712C211.712 34.5175 211.655 34.2701 211.542 34.0547C211.428 33.8369 211.268 33.6652 211.062 33.5398C210.859 33.4143 210.619 33.3516 210.345 33.3516C210.047 33.3516 209.786 33.425 209.564 33.5717C209.343 33.7161 209.173 33.9055 209.052 34.1399C208.934 34.3719 208.875 34.6241 208.875 34.8963V35.5178C208.875 35.8823 208.939 36.1925 209.066 36.4482C209.197 36.7038 209.378 36.8991 209.61 37.0341C209.842 37.1667 210.113 37.233 210.423 37.233C210.624 37.233 210.808 37.2045 210.973 37.1477C211.139 37.0885 211.282 37.0009 211.403 36.8849C211.524 36.7689 211.616 36.6257 211.68 36.4553L212.685 36.6364C212.605 36.9323 212.46 37.1915 212.252 37.4141C212.046 37.6342 211.787 37.8059 211.474 37.929C211.164 38.0497 210.81 38.1101 210.412 38.1101ZM214.992 34.7614V38H213.931V32.5455H214.95V33.4332H215.017C215.143 33.1444 215.339 32.9124 215.607 32.7372C215.877 32.562 216.216 32.4744 216.626 32.4744C216.998 32.4744 217.323 32.5526 217.602 32.7088C217.882 32.8627 218.098 33.0923 218.252 33.3977C218.406 33.7031 218.483 34.0807 218.483 34.5305V38H217.421V34.6584C217.421 34.263 217.318 33.9541 217.112 33.7315C216.906 33.5066 216.624 33.3942 216.264 33.3942C216.017 33.3942 215.798 33.4474 215.607 33.554C215.417 33.6605 215.267 33.8168 215.156 34.0227C215.047 34.2263 214.992 34.4725 214.992 34.7614ZM222.453 32.5455V33.3977H219.474V32.5455H222.453ZM220.273 31.2386H221.335V36.3984C221.335 36.6044 221.365 36.7595 221.427 36.8636C221.489 36.9654 221.568 37.0353 221.665 37.0732C221.764 37.1087 221.872 37.1264 221.988 37.1264C222.073 37.1264 222.148 37.1205 222.212 37.1087C222.276 37.0968 222.325 37.0874 222.361 37.0803L222.553 37.9574C222.491 37.9811 222.404 38.0047 222.29 38.0284C222.176 38.0545 222.034 38.0687 221.864 38.071C221.584 38.0758 221.324 38.026 221.083 37.9219C220.841 37.8177 220.646 37.6567 220.497 37.4389C220.347 37.2211 220.273 36.9477 220.273 36.6186V31.2386Z" fill="#575757"/>
</svg>
