<svg width="183" height="153" viewBox="0 0 183 153" fill="none" xmlns="http://www.w3.org/2000/svg">
<g filter="url(#filter0_d_579_291)">
<circle cx="89.5" cy="86.5" r="58.5" fill="#4CB71A"/>
<path fill-rule="evenodd" clip-rule="evenodd" d="M117.334 66.9655C118.955 68.5862 118.955 71.2138 117.334 72.8345L84.1344 106.034C82.5138 107.655 79.8861 107.655 78.2655 106.034L61.6655 89.4345C60.0448 87.8138 60.0448 85.1862 61.6655 83.5655C63.2861 81.9448 65.9138 81.9448 67.5344 83.5655L81.2 97.231L111.465 66.9655C113.086 65.3448 115.714 65.3448 117.334 66.9655Z" fill="white"/>
</g>
<circle cx="175.5" cy="31.5" r="7.5" fill="#4CB71A" fill-opacity="0.5"/>
<circle cx="175.5" cy="31.5" r="7.5" fill="#4CB71A"/>
<circle cx="16.5" cy="135.5" r="4.5" fill="#4CB71A" fill-opacity="0.5"/>
<circle cx="16.5" cy="135.5" r="4.5" fill="#4CB71A" fill-opacity="0.3"/>
<circle cx="4.5" cy="58.5" r="4.5" fill="#4CB71A" fill-opacity="0.5"/>
<circle cx="4.5" cy="58.5" r="4.5" fill="#4CB71A" fill-opacity="0.5"/>
<circle cx="112" cy="3" r="3" fill="#4CB71A" fill-opacity="0.5"/>
<circle cx="112" cy="3" r="3" fill="#4CB71A" fill-opacity="0.5"/>
<circle cx="136" cy="25" r="3" fill="#4CB71A" fill-opacity="0.5"/>
<circle cx="136" cy="25" r="3" fill="#4CB71A" fill-opacity="0.5"/>
<circle cx="163" cy="140" r="5" fill="#4CB71A" fill-opacity="0.5"/>
<circle cx="163" cy="140" r="5" fill="#4CB71A"/>
<circle cx="161" cy="111" r="3" fill="#4CB71A" fill-opacity="0.5"/>
<circle cx="161" cy="111" r="3" fill="#4CB71A" fill-opacity="0.5"/>
<circle cx="18" cy="35" r="3" fill="#4CB71A" fill-opacity="0.5"/>
<circle cx="18" cy="35" r="3" fill="#4CB71A"/>
<defs>
<filter id="filter0_d_579_291" x="27" y="28" width="125" height="125" filterUnits="userSpaceOnUse" color-interpolation-filters="sRGB">
<feFlood flood-opacity="0" result="BackgroundImageFix"/>
<feColorMatrix in="SourceAlpha" type="matrix" values="0 0 0 0 0 0 0 0 0 0 0 0 0 0 0 0 0 0 127 0" result="hardAlpha"/>
<feOffset dy="4"/>
<feGaussianBlur stdDeviation="2"/>
<feComposite in2="hardAlpha" operator="out"/>
<feColorMatrix type="matrix" values="0 0 0 0 0.298039 0 0 0 0 0.717647 0 0 0 0 0.101961 0 0 0 0.25 0"/>
<feBlend mode="normal" in2="BackgroundImageFix" result="effect1_dropShadow_579_291"/>
<feBlend mode="normal" in="SourceGraphic" in2="effect1_dropShadow_579_291" result="shape"/>
</filter>
</defs>
</svg>
